<svg width="92" height="92" viewBox="0 0 92 92" fill="none" xmlns="http://www.w3.org/2000/svg">
<g clip-path="url(#clip0_414_567)">
<path d="M92 46C92.0082 52.227 90.7478 58.3904 88.2955 64.1142L88.1431 64.4653C83.995 73.902 76.8023 81.6752 67.7153 86.5418C58.6283 91.4084 48.1718 93.0873 38.018 91.31C37.7418 91.261 37.466 91.2102 37.1906 91.1576C34.3453 90.606 31.5591 89.7843 28.8698 88.7038C28.4329 88.5282 27.9992 88.3463 27.5687 88.158C27.2747 88.0301 26.9808 87.8981 26.6895 87.762C18.7225 84.0695 11.977 78.1763 7.24831 70.7772C2.51959 63.378 0.00467711 54.7812 0 46C0 20.5952 20.5952 0 46 0C71.4048 0 92 20.5952 92 46Z" fill="#0EB34D"/>
<path opacity="0.2" d="M38.0183 91.31C37.742 91.261 37.4662 91.2102 37.1908 91.1576C37.0112 85.9438 36.3947 75.2427 34.292 64.0353C33.142 57.9015 31.5456 51.6139 29.3314 45.9932C28.5728 44.0484 27.7063 42.1473 26.736 40.299C24.4986 36.0733 21.7849 32.5157 18.4941 30.1055L18.9786 29.4441C21.7155 31.4501 24.1752 34.2664 26.3577 37.8928C27.0123 38.9789 27.6411 40.1375 28.244 41.3687C28.8904 42.6861 29.5069 44.0847 30.0935 45.5645C30.4678 46.5063 30.8293 47.4807 31.1782 48.4878C32.697 52.8605 33.9881 57.8498 35.0514 63.4555C35.2869 64.694 35.511 65.9628 35.7237 67.2621C37.3718 77.329 37.8686 86.6365 38.0183 91.31Z" fill="black"/>
<path opacity="0.2" d="M27.5685 88.158C27.2745 88.0301 26.9806 87.8981 26.6893 87.762C26.4049 84.6726 25.8823 80.8402 24.9269 77.2024C24.5085 75.5686 23.9713 73.9675 23.3196 72.4119C22.2295 69.8601 20.8182 67.6907 18.9932 66.3529L19.4777 65.6929C21.3884 67.0919 22.8623 69.3035 24.0014 71.8906C25.2848 74.8058 26.1409 78.1986 26.7111 81.4404C27.1343 83.8479 27.4011 86.1738 27.5685 88.158Z" fill="black"/>
<path opacity="0.2" d="M13.9172 30.0865C16.1787 30.0865 18.0121 28.2532 18.0121 25.9916C18.0121 23.7301 16.1787 21.8967 13.9172 21.8967C11.6556 21.8967 9.82227 23.7301 9.82227 25.9916C9.82227 28.2532 11.6556 30.0865 13.9172 30.0865Z" fill="black"/>
<path opacity="0.2" d="M15.236 65.3363C17.4976 65.3363 19.3309 63.5029 19.3309 61.2414C19.3309 58.9798 17.4976 57.1465 15.236 57.1465C12.9745 57.1465 11.1411 58.9798 11.1411 61.2414C11.1411 63.5029 12.9745 65.3363 15.236 65.3363Z" fill="black"/>
<path opacity="0.2" d="M30.174 32.8698C29.3056 37.7689 31.2225 42.2049 31.2225 42.2049C31.2225 42.2049 34.5473 38.698 35.4156 33.7989C36.284 28.8999 34.3671 24.4639 34.3671 24.4639C34.3671 24.4639 31.0423 27.9708 30.174 32.8698Z" fill="black"/>
<path opacity="0.2" d="M16.5651 44.4991C21.2379 46.2077 25.9334 45.1112 25.9334 45.1112C25.9334 45.1112 23.0528 41.2444 18.38 39.5357C13.7072 37.827 9.01172 38.9236 9.01172 38.9236C9.01172 38.9236 11.8923 42.7904 16.5651 44.4991Z" fill="black"/>
<path opacity="0.2" d="M15.7726 75.7139C19.0478 76.9115 22.3437 76.1303 22.3437 76.1303C22.3437 76.1303 20.3292 73.4072 17.054 72.2096C13.7787 71.0119 10.4829 71.7932 10.4829 71.7932C10.4829 71.7932 12.4973 74.5163 15.7726 75.7139Z" fill="black"/>
<path d="M45.9054 56.1865C55.8096 56.1865 63.8386 48.1575 63.8386 38.2533C63.8386 28.349 55.8096 20.3201 45.9054 20.3201C36.0011 20.3201 27.9722 28.349 27.9722 38.2533C27.9722 48.1575 36.0011 56.1865 45.9054 56.1865Z" fill="#D0CDE1"/>
<path d="M38.9004 51.9834C38.9004 51.9834 41.142 62.6312 41.142 63.7521C41.142 64.8729 51.7899 69.9166 51.7899 69.9166L61.3169 68.2354L64.6794 58.1479C64.6794 58.1479 59.0753 49.7418 59.0753 46.3793L38.9004 51.9834Z" fill="#D0CDE1"/>
<path d="M88.2955 64.1142L88.143 64.4654C83.9949 73.9021 76.8023 81.6752 67.7153 86.5418C58.6282 91.4084 48.1718 93.0873 38.018 91.31C37.7417 91.261 37.4659 91.2102 37.1905 91.1576C34.3452 90.606 31.559 89.7844 28.8697 88.7038C28.4328 88.5283 27.9992 88.3463 27.5686 88.1581C27.2747 88.0302 26.9807 87.8981 26.6895 87.762C24.0496 86.539 21.5319 85.0681 19.1702 83.3689L17.0444 77.2025L18.2393 76.2906L20.6972 74.4139L23.3198 72.4119L24.0016 71.8907L34.2917 64.0353L35.0511 63.4556L40.3996 59.3727L40.401 59.3713C40.401 59.3713 46.185 68.7959 54.5916 65.9937C62.9982 63.1915 62.8144 55.1565 62.8144 55.1565L88.2955 64.1142Z" fill="#2F2E41"/>
<path d="M30.3539 23.8051C30.3539 23.8051 36.0476 11.4687 46.9606 14.3156C57.8736 17.1624 64.0418 21.4327 64.5162 25.703C64.9907 29.9733 64.279 36.3788 64.279 36.3788C64.279 36.3788 63.0928 27.6009 55.5012 29.4988C47.9095 31.3968 36.0476 29.9733 36.0476 29.9733L34.1497 47.0545C34.1497 47.0545 32.0145 43.9704 29.6421 45.8683C27.2698 47.7662 22.7622 27.6009 30.3539 23.8051Z" fill="#2F2E41"/>
<path d="M28.8698 88.7038C28.433 88.5282 27.9993 88.3463 27.5688 88.158C27.2748 88.0301 26.9808 87.8981 26.6896 87.762C22.3235 85.7374 18.3013 83.0419 14.769 79.7732C16.0198 78.0693 17.0445 77.2024 17.0445 77.2024H25.4511L26.7114 81.4404L28.8698 88.7038Z" fill="#2F2E41"/>
<path d="M80.9315 63.1915L88.1432 64.4654C86.2133 68.8619 83.6068 72.9292 80.4185 76.5193L80.9315 63.1915Z" fill="#2F2E41"/>
</g>
<defs>
<clipPath id="clip0_414_567">
<rect width="92" height="92" fill="white"/>
</clipPath>
</defs>
</svg>
