<svg width="342" height="262" viewBox="0 0 342 262" fill="none" xmlns="http://www.w3.org/2000/svg">
<g clip-path="url(#clip0_452_610)" filter="url(#filter0_d_452_610)">
<path d="M137.65 52.6737H136.432V19.31C136.432 16.7742 135.932 14.2632 134.961 11.9204C133.99 9.57761 132.567 7.44889 130.773 5.65579C128.979 3.86268 126.85 2.44032 124.506 1.46989C122.162 0.499474 119.65 2.14855e-06 117.113 0H46.3946C41.2709 -9.76302e-06 36.3571 2.03442 32.7341 5.65574C29.1111 9.27706 27.0757 14.1886 27.0757 19.31V202.346C27.0757 204.882 27.5754 207.393 28.5462 209.736C29.5171 212.078 30.9401 214.207 32.734 216C34.528 217.793 36.6577 219.216 39.0015 220.186C41.3454 221.157 43.8576 221.656 46.3946 221.656H117.113C122.236 221.656 127.15 219.622 130.773 216C134.396 212.379 136.432 207.467 136.432 202.346V76.4226H137.65V52.6737Z" fill="#3F3D56"/>
<path d="M117.892 5.02368H108.661C109.085 6.06397 109.248 7.19265 109.133 8.31028C109.018 9.42791 108.63 10.5002 108.003 11.4327C107.376 12.3652 106.53 13.1292 105.538 13.6575C104.546 14.1859 103.439 14.4623 102.315 14.4623H61.8014C60.6773 14.4623 59.5706 14.1859 58.5786 13.6576C57.5866 13.1292 56.7399 12.3652 56.1129 11.4327C55.486 10.5002 55.098 9.42792 54.9833 8.31028C54.8686 7.19265 55.0307 6.06397 55.4552 5.02368H46.8334C44.9388 5.02368 43.0627 5.39668 41.3124 6.12138C39.562 6.84607 37.9715 7.90828 36.6319 9.24734C35.2922 10.5864 34.2295 12.1761 33.5045 13.9257C32.7794 15.6753 32.4063 17.5504 32.4063 19.4442V202.212C32.4062 204.105 32.7794 205.981 33.5045 207.73C34.2295 209.48 35.2922 211.069 36.6319 212.408C37.9715 213.748 39.562 214.81 41.3124 215.534C43.0627 216.259 44.9388 216.632 46.8334 216.632H117.892C119.787 216.632 121.663 216.259 123.413 215.534C125.163 214.81 126.754 213.748 128.094 212.408C129.433 211.069 130.496 209.48 131.221 207.73C131.946 205.981 132.319 204.105 132.319 202.212V19.4442C132.319 17.5504 131.946 15.6753 131.221 13.9257C130.496 12.1761 129.433 10.5864 128.094 9.24734C126.754 7.90828 125.163 6.84607 123.413 6.12138C121.663 5.39668 119.787 5.02368 117.892 5.02368Z" fill="white"/>
<path d="M160.317 221.688H4.40921C4.30068 221.688 4.19659 221.645 4.11985 221.568C4.04311 221.491 4 221.387 4 221.279C4 221.17 4.04311 221.066 4.11985 220.989C4.19659 220.913 4.30068 220.87 4.40921 220.87H160.317C160.425 220.87 160.529 220.913 160.606 220.989C160.683 221.066 160.726 221.17 160.726 221.279C160.726 221.387 160.683 221.491 160.606 221.568C160.529 221.645 160.425 221.688 160.317 221.688Z" fill="#CBCBCB"/>
<path d="M82.363 141.389C101.448 141.389 116.919 125.925 116.919 106.849C116.919 87.7732 101.448 72.3091 82.363 72.3091C63.2783 72.3091 47.8071 87.7732 47.8071 106.849C47.8071 125.925 63.2783 141.389 82.363 141.389Z" fill="#0EB34D"/>
<path d="M78.9385 120.025C78.1611 120.026 77.4043 119.775 76.7823 119.309L76.7438 119.28L68.6227 113.071C68.2465 112.782 67.9309 112.423 67.6938 112.013C67.4566 111.603 67.3026 111.15 67.2406 110.68C67.1785 110.21 67.2096 109.733 67.332 109.276C67.4545 108.818 67.666 108.389 67.9543 108.013C68.2427 107.637 68.6023 107.321 69.0126 107.084C69.4229 106.847 69.876 106.694 70.3458 106.631C70.8157 106.569 71.2932 106.601 71.751 106.723C72.2088 106.845 72.6381 107.057 73.0142 107.345L78.2744 111.377L90.7045 95.1678C90.9927 94.792 91.3522 94.4766 91.7624 94.2397C92.1725 94.0028 92.6254 93.8489 93.095 93.7869C93.5647 93.7249 94.042 93.756 94.4996 93.8783C94.9572 94.0007 95.3863 94.212 95.7623 94.5001L95.7633 94.5008L95.6862 94.6079L95.7654 94.5008C96.5239 95.0835 97.0202 95.9432 97.1453 96.8911C97.2704 97.8391 97.0141 98.798 96.4327 99.5573L81.8122 118.614C81.4739 119.053 81.039 119.409 80.5412 119.653C80.0434 119.896 79.4961 120.023 78.9416 120.021L78.9385 120.025Z" fill="white"/>
<path d="M288.089 225.083C288.51 224.403 289.004 223.773 289.565 223.203C289.796 222.964 290.039 222.738 290.291 222.518C291.818 221.159 293.681 220.231 295.687 219.83C297.692 219.428 299.769 219.568 301.702 220.235C303.636 220.902 305.357 222.071 306.689 223.623C308.02 225.175 308.914 227.054 309.279 229.066C310.966 222.827 306.573 216.682 302.156 211.962C297.737 207.244 292.686 202.068 292.711 195.602C292.723 192.005 294.484 188.795 297.142 186.416C297.224 186.344 297.306 186.272 297.39 186.202C300.603 183.449 304.737 182.009 308.966 182.17C316.822 182.59 323.682 187.868 328.446 194.129C336.114 204.202 339.474 218.341 334.106 229.808C329.384 239.893 319.313 245.881 309.036 250.696C307.601 251.368 306.168 252.02 304.739 252.652C304.729 252.655 304.719 252.661 304.71 252.664C304.641 252.694 304.572 252.724 304.507 252.755C304.212 252.885 303.917 253.016 303.625 253.144L303.76 253.233L304.183 253.506C304.036 253.417 303.891 253.331 303.745 253.243C303.701 253.216 303.655 253.191 303.612 253.164C298.564 250.136 293.446 246.933 289.958 242.207C286.342 237.3 284.888 230.27 288.089 225.083Z" fill="#F1F1F1"/>
<path d="M321.768 213.686C322.885 216.227 323.627 218.918 323.967 221.674C324.236 224.131 324.135 226.614 323.668 229.041C322.666 234.029 320.48 238.703 317.294 242.671C314.89 245.683 312.115 248.379 309.035 250.696C307.6 251.368 306.168 252.02 304.739 252.652C304.729 252.655 304.719 252.661 304.709 252.664C304.641 252.694 304.572 252.724 304.507 252.755C304.212 252.886 303.917 253.016 303.625 253.144L303.76 253.233L304.183 253.506C304.036 253.417 303.891 253.331 303.745 253.243C303.701 253.216 303.655 253.191 303.612 253.164C304.722 249.28 304.886 245.186 304.088 241.226C303.29 237.266 301.554 233.555 299.025 230.403C296.483 227.292 293.242 224.824 289.564 223.203C289.795 222.964 290.039 222.738 290.29 222.518C291.707 223.168 293.063 223.942 294.343 224.831C298.921 227.994 302.359 232.546 304.147 237.813C305.743 242.592 305.943 247.727 304.722 252.615C304.975 252.45 305.229 252.28 305.477 252.111C310.179 248.941 314.513 245.134 317.778 240.466C320.593 236.52 322.395 231.943 323.024 227.138C323.65 221.889 322.336 216.727 319.992 212.043C317.402 207.032 314.14 202.399 310.295 198.271C306.433 194.03 302.066 190.277 297.292 187.096C297.184 187.024 297.109 186.912 297.081 186.786C297.053 186.659 297.075 186.527 297.142 186.416C297.193 186.315 297.282 186.238 297.39 186.202C297.444 186.188 297.501 186.187 297.557 186.198C297.612 186.209 297.664 186.233 297.709 186.267C298.298 186.66 298.883 187.056 299.46 187.465C304.268 190.867 308.634 194.854 312.458 199.333C316.154 203.65 319.517 208.446 321.768 213.686Z" fill="white"/>
<path d="M218.85 16.0379C222.903 16.0379 226.189 12.7537 226.189 8.70254C226.189 4.65134 222.903 1.36719 218.85 1.36719C214.797 1.36719 211.511 4.65134 211.511 8.70254C211.511 12.7537 214.797 16.0379 218.85 16.0379Z" fill="#F1F1F1"/>
<path d="M310.103 114.202C312.574 114.202 314.577 112.2 314.577 109.73C314.577 107.26 312.574 105.258 310.103 105.258C307.632 105.258 305.629 107.26 305.629 109.73C305.629 112.2 307.632 114.202 310.103 114.202Z" fill="#F1F1F1"/>
<path d="M179.157 126.473C181.628 126.473 183.631 124.47 183.631 122C183.631 119.53 181.628 117.528 179.157 117.528C176.686 117.528 174.683 119.53 174.683 122C174.683 124.47 176.686 126.473 179.157 126.473Z" fill="#F1F1F1"/>
<path d="M181.684 254H337.591C337.7 254 337.804 253.957 337.88 253.88C337.957 253.803 338 253.699 338 253.591C338 253.482 337.957 253.378 337.88 253.302C337.804 253.225 337.7 253.182 337.591 253.182H181.684C181.575 253.182 181.471 253.225 181.394 253.302C181.318 253.378 181.274 253.482 181.274 253.591C181.274 253.699 181.318 253.803 181.394 253.88C181.471 253.957 181.575 254 181.684 254Z" fill="#CBCBCB"/>
<path d="M320.385 39.5253C320.59 38.0726 320.255 36.5952 319.442 35.3732C318.63 34.1511 317.398 33.2694 315.978 32.895C314.559 32.5206 313.052 32.6795 311.742 33.3417C310.432 34.0039 309.411 35.1234 308.872 36.4879L296.22 50.9853L299.932 61.3485L312.656 44.4089C313.486 44.6747 314.365 44.7553 315.229 44.6451C316.094 44.5349 316.924 44.2364 317.661 43.7708C318.398 43.3053 319.024 42.6838 319.495 41.9503C319.965 41.2168 320.269 40.389 320.385 39.5253Z" fill="#FFB7B7"/>
<path d="M267.943 95.9347L309.939 51.1354L304.275 42.1338L251.601 86.6611L267.943 95.9347Z" fill="#3F3D56"/>
<path d="M258.57 68.7149C266.706 68.7149 273.301 62.1225 273.301 53.9903C273.301 45.8581 266.706 39.2656 258.57 39.2656C250.434 39.2656 243.838 45.8581 243.838 53.9903C243.838 62.1225 250.434 68.7149 258.57 68.7149Z" fill="#2F2E41"/>
<path d="M259.754 45.6722C262.924 42.4592 266.76 39.9797 270.992 38.4084C273.709 37.4024 276.666 36.7809 279.506 37.3522C282.346 37.9235 285.032 39.8873 285.824 42.6726C286.472 44.9502 285.803 47.4024 284.798 49.5464C283.792 51.6903 282.45 53.6785 281.637 55.9024C280.807 58.1717 280.558 60.6121 280.911 63.0022C281.264 65.3923 282.209 67.6563 283.66 69.5888C285.111 71.5213 287.021 73.061 289.218 74.0682C291.415 75.0754 293.829 75.5181 296.241 75.3563C293.45 75.7303 290.878 77.041 288.151 77.7387C285.423 78.4364 282.204 78.3891 280.177 76.4359C278.032 74.3694 277.989 71.0094 278.093 68.0337C278.247 63.6102 278.401 59.1867 278.555 54.7631C278.634 52.5072 278.701 50.179 277.887 48.0734C277.073 45.9678 275.139 44.1241 272.881 44.1432C271.169 44.1577 269.654 45.1941 268.282 46.2161C266.909 47.2382 265.456 48.3286 263.751 48.4806C262.047 48.6327 260.1 47.3716 260.228 45.6656L259.754 45.6722Z" fill="#2F2E41"/>
<path d="M202.619 152.859C201.205 153.252 199.696 153.112 198.377 152.467C197.059 151.822 196.024 150.716 195.467 149.358C194.91 148.001 194.871 146.486 195.356 145.102C195.842 143.717 196.819 142.559 198.102 141.846L210.828 127.415L221.592 129.739L206.453 144.561C206.825 145.349 207.02 146.209 207.024 147.081C207.027 147.952 206.84 148.814 206.474 149.605C206.109 150.396 205.574 151.097 204.908 151.66C204.242 152.222 203.461 152.631 202.619 152.859H202.619Z" fill="#FFB7B7"/>
<path d="M244.489 101.193L212.77 140.991L203.101 136.553L240.384 78.5364L244.489 101.193Z" fill="#3F3D56"/>
<path d="M219.18 221.365L211.62 221.246L212.529 247.001H219.179L219.18 221.365Z" fill="#FFB7B7"/>
<path d="M220.875 244.831L207.78 244.83H207.779C205.566 244.83 203.444 245.709 201.879 247.273C200.314 248.838 199.434 250.959 199.434 253.171V253.442L220.874 253.443L220.875 244.831Z" fill="#2F2E41"/>
<path d="M269.233 214.534L260.975 219.833L277.493 239.697L283.089 236.107L269.233 214.534Z" fill="#FFB7B7"/>
<path d="M283.344 233.365L272.324 240.436L272.324 240.436C270.461 241.632 269.15 243.517 268.679 245.679C268.207 247.84 268.614 250.1 269.81 251.962L269.956 252.19L287.999 240.612L283.344 233.365Z" fill="#2F2E41"/>
<path d="M272.175 135.892C272.175 135.892 253.826 74.978 247.929 74.1549C242.033 73.3317 232.532 89.7847 232.532 89.7847C220.213 105.494 207.511 156.381 207.511 156.381C207.511 156.381 228.686 157.706 244.165 165.937C259.644 174.169 277.911 165.521 277.911 165.521L272.175 135.892Z" fill="#3F3D56"/>
<path opacity="0.1" d="M272.175 135.892C272.175 135.892 253.826 74.9782 247.929 74.1551C242.033 73.3319 234.945 89.9519 234.945 89.9519C228.807 115.311 207.511 156.382 207.511 156.382C207.511 156.382 228.686 157.706 244.165 165.938C259.644 174.169 277.911 165.521 277.911 165.521L272.175 135.892Z" fill="black"/>
<path d="M257.121 117.667V148.276L260.725 192.615L278.73 226.155L270.137 232.29L245.584 200.386L235.874 168.708L220.623 238.834L209.165 238.016L217.122 140.788L232.223 113.421L257.121 117.667Z" fill="#2F2E41"/>
<path d="M238.621 88.0614C232.892 93.7876 238.212 99.9229 238.212 99.9229L231.665 114.648L257.445 121.601L266.454 81.3624L260.316 74.8181C248.039 74.4091 248.033 74.1548 248.033 74.1548C245.882 76.2587 238.621 88.0614 238.621 88.0614Z" fill="#0EB34D"/>
<path d="M267.492 77.1938C266.321 76.3299 264.99 75.7069 263.577 75.3607C262.163 75.0144 260.695 74.952 259.257 75.177C257.82 75.4019 256.441 75.9098 255.201 76.6711C253.961 77.4325 252.884 78.4322 252.033 79.6124C245.552 88.6321 239.56 103.197 247.817 121.362C261.074 150.528 272.612 165.46 277.302 165.458C277.507 165.46 277.71 165.428 277.905 165.363C280.792 164.384 284.966 159.501 285.722 155.198C285.992 153.658 285.928 151.513 284.085 150.04C278.792 145.808 269.289 132.631 266.325 115.288C264.686 105.705 267.863 96.9753 270.817 91.3399C272.064 89.0081 272.429 86.3051 271.845 83.7262C271.26 81.1473 269.766 78.8653 267.634 77.2987V77.2987L267.492 77.1938Z" fill="#3F3D56"/>
<path d="M259.328 67.2685C264.583 64.3971 266.514 57.8113 263.641 52.5587C260.769 47.3061 254.18 45.3757 248.925 48.247C243.67 51.1184 241.738 57.7042 244.611 62.9568C247.484 68.2094 254.073 70.1398 259.328 67.2685Z" fill="#FFB7B7"/>
<path d="M238.876 56.938H254.534L254.695 54.691L255.498 56.938H257.909L258.227 52.4845L259.818 56.938H264.484V56.7174C264.48 53.6169 263.246 50.6443 261.053 48.4519C258.86 46.2594 255.886 45.0262 252.784 45.0227H250.576C247.474 45.0262 244.5 46.2594 242.307 48.4519C240.113 50.6443 238.879 53.6168 238.876 56.7174V56.938Z" fill="#2F2E41"/>
<path d="M262.118 65.015L268.8 62.8478V46.6279H256.179L256.491 46.9398C260.839 51.2798 265.674 66.6778 262.118 65.015Z" fill="#2F2E41"/>
<path d="M193.607 205.207C191.707 205.207 189.849 204.644 188.269 203.589C186.69 202.533 185.458 201.033 184.731 199.279C184.004 197.524 183.814 195.593 184.185 193.73C184.555 191.867 185.47 190.156 186.814 188.813C188.157 187.47 189.869 186.555 191.732 186.185C193.596 185.814 195.528 186.004 197.283 186.731C199.038 187.458 200.539 188.689 201.594 190.268C202.65 191.847 203.213 193.704 203.213 195.604V195.604C203.21 198.15 202.197 200.591 200.396 202.391C198.595 204.192 196.154 205.204 193.607 205.207V205.207Z" fill="#0EB34D"/>
<path d="M197.397 194.656H194.554V191.814C194.554 191.563 194.454 191.323 194.276 191.145C194.099 190.968 193.858 190.868 193.607 190.868C193.356 190.868 193.115 190.968 192.937 191.145C192.76 191.323 192.659 191.563 192.659 191.814V194.656H189.816C189.565 194.657 189.324 194.757 189.147 194.934C188.97 195.112 188.87 195.353 188.87 195.603C188.87 195.854 188.97 196.095 189.147 196.273C189.324 196.45 189.565 196.55 189.816 196.551H192.659V199.393C192.659 199.644 192.76 199.884 192.937 200.062C193.115 200.239 193.356 200.339 193.607 200.339C193.858 200.339 194.099 200.239 194.276 200.062C194.454 199.884 194.554 199.644 194.554 199.393V196.551H197.397C197.522 196.551 197.645 196.527 197.76 196.479C197.875 196.432 197.98 196.362 198.068 196.275C198.156 196.187 198.227 196.082 198.274 195.967C198.322 195.853 198.347 195.729 198.347 195.605C198.347 195.48 198.323 195.357 198.275 195.242C198.228 195.127 198.158 195.022 198.07 194.934C197.982 194.846 197.878 194.776 197.763 194.729C197.648 194.681 197.524 194.656 197.4 194.656H197.397Z" fill="white"/>
<path d="M311.608 117.207C309.114 117.207 306.677 116.468 304.603 115.083C302.53 113.698 300.914 111.73 299.96 109.427C299.005 107.124 298.756 104.59 299.242 102.145C299.729 99.6999 300.929 97.4541 302.693 95.6915C304.456 93.9289 306.702 92.7285 309.148 92.2422C311.594 91.7559 314.129 92.0055 316.432 92.9594C318.736 93.9133 320.705 95.5287 322.09 97.6014C323.476 99.674 324.215 102.111 324.215 104.604V104.604C324.211 107.945 322.882 111.149 320.518 113.511C318.155 115.874 314.95 117.203 311.608 117.207V117.207Z" fill="#0EB34D"/>
<path d="M316.582 103.36H312.852V99.6306C312.851 99.3012 312.72 98.9855 312.487 98.7528C312.253 98.5201 311.937 98.3894 311.608 98.3894C311.278 98.3894 310.962 98.5201 310.729 98.7528C310.496 98.9855 310.365 99.3012 310.364 99.6306V103.36H306.633C306.304 103.361 305.988 103.492 305.755 103.725C305.522 103.958 305.392 104.274 305.392 104.604C305.392 104.933 305.522 105.249 305.755 105.482C305.988 105.715 306.304 105.846 306.633 105.847H310.364V109.577C310.365 109.906 310.496 110.222 310.729 110.454C310.962 110.687 311.278 110.818 311.608 110.818C311.937 110.818 312.253 110.687 312.487 110.454C312.72 110.222 312.851 109.906 312.852 109.577V105.847H316.582C316.746 105.847 316.908 105.815 317.059 105.753C317.21 105.691 317.347 105.6 317.463 105.484C317.579 105.369 317.671 105.232 317.734 105.081C317.796 104.93 317.829 104.769 317.829 104.605C317.829 104.442 317.797 104.28 317.735 104.129C317.673 103.978 317.581 103.841 317.466 103.725C317.35 103.61 317.213 103.518 317.062 103.455C316.911 103.393 316.749 103.36 316.586 103.36H316.582Z" fill="white"/>
<path d="M262.607 23.2071C260.509 23.2071 258.458 22.5852 256.714 21.4201C254.97 20.255 253.61 18.5989 252.807 16.6614C252.005 14.7238 251.795 12.5918 252.204 10.5349C252.613 8.47802 253.623 6.58865 255.107 5.10572C256.59 3.62279 258.48 2.61289 260.538 2.20375C262.595 1.79461 264.728 2.00459 266.666 2.80715C268.604 3.60971 270.261 4.96879 271.426 6.71253C272.592 8.45627 273.214 10.5064 273.214 12.6035V12.6036C273.211 15.4148 272.092 18.11 270.104 20.0979C268.115 22.0857 265.419 23.2039 262.607 23.2071V23.2071Z" fill="#0EB34D"/>
<path d="M266.792 11.5576H263.654V8.41971C263.653 8.14261 263.543 7.87701 263.346 7.68123C263.15 7.48545 262.884 7.37549 262.607 7.37549C262.33 7.37549 262.064 7.48545 261.868 7.68123C261.672 7.87701 261.561 8.14261 261.561 8.41971V11.5576H258.422C258.145 11.5581 257.879 11.6685 257.683 11.8646C257.487 12.0607 257.377 12.3265 257.377 12.6036C257.377 12.8807 257.487 13.1465 257.683 13.3426C257.879 13.5387 258.145 13.6491 258.422 13.6496H261.561V16.7875C261.561 17.0646 261.672 17.3302 261.868 17.526C262.064 17.7218 262.33 17.8317 262.607 17.8317C262.884 17.8317 263.15 17.7218 263.346 17.526C263.543 17.3302 263.653 17.0646 263.654 16.7875V13.6496H266.792C266.93 13.6499 267.066 13.6231 267.193 13.5708C267.32 13.5185 267.436 13.4416 267.533 13.3446C267.631 13.2476 267.708 13.1324 267.761 13.0055C267.814 12.8786 267.841 12.7425 267.841 12.6051C267.841 12.4676 267.815 12.3315 267.762 12.2044C267.71 12.0774 267.633 11.962 267.535 11.8647C267.438 11.7674 267.323 11.6902 267.196 11.6375C267.069 11.5849 266.933 11.5577 266.795 11.5576H266.792Z" fill="white"/>
</g>
<defs>
<filter id="filter0_d_452_610" x="0" y="0" width="342" height="262" filterUnits="userSpaceOnUse" color-interpolation-filters="sRGB">
<feFlood flood-opacity="0" result="BackgroundImageFix"/>
<feColorMatrix in="SourceAlpha" type="matrix" values="0 0 0 0 0 0 0 0 0 0 0 0 0 0 0 0 0 0 127 0" result="hardAlpha"/>
<feOffset dy="4"/>
<feGaussianBlur stdDeviation="2"/>
<feComposite in2="hardAlpha" operator="out"/>
<feColorMatrix type="matrix" values="0 0 0 0 0 0 0 0 0 0 0 0 0 0 0 0 0 0 0.25 0"/>
<feBlend mode="normal" in2="BackgroundImageFix" result="effect1_dropShadow_452_610"/>
<feBlend mode="normal" in="SourceGraphic" in2="effect1_dropShadow_452_610" result="shape"/>
</filter>
<clipPath id="clip0_452_610">
<rect width="334" height="254" fill="white" transform="translate(4)"/>
</clipPath>
</defs>
</svg>
