<svg width="210" height="143" viewBox="0 0 210 143" fill="none" xmlns="http://www.w3.org/2000/svg">
<g clip-path="url(#clip0_417_73)">
<path d="M120.478 96.9691C120.478 96.9691 92.5896 93.8832 82.8286 88.9972C73.0677 84.1112 0.557688 81.7968 0.557688 96.9691C0.557688 112.141 83.9441 118.827 83.9441 118.827L127.729 116.513L120.478 96.9691Z" fill="#FBBEBE"/>
<path opacity="0.1" d="M120.478 96.9691C120.478 96.9691 92.5896 93.8832 82.8286 88.9972C73.0677 84.1112 0.557688 81.7968 0.557688 96.9691C0.557688 112.141 83.9441 118.827 83.9441 118.827L127.729 116.513L120.478 96.9691Z" fill="black"/>
<path d="M112.39 94.1403L118.247 109.827L210 110.855V87.7114C210 87.7114 174.861 80.2539 146.972 96.1976C146.972 96.1976 114.064 92.5974 112.39 94.1403Z" fill="#0EB34D"/>
<path opacity="0.1" d="M112.39 94.115L118.247 109.802L210 110.83V87.6861C210 87.6861 174.861 80.2286 146.972 96.1723C146.972 96.1723 114.064 92.5721 112.39 94.115Z" fill="black"/>
<path d="M7.48881 87.5828C7.48881 88.4593 9.62032 89.11 9.8299 89.9554C10.0378 90.794 8.77137 92.0692 9.17207 92.87C9.58631 93.6889 10.0757 94.4737 10.6349 95.2157C11.1599 95.9088 12.7815 95.8076 13.4465 96.4576C14.0975 97.0479 14.7871 97.6009 15.5115 98.1134C16.2171 98.6545 17.173 98.768 17.9753 99.2661C18.7381 99.7397 18.6458 101.477 19.4897 101.908C20.2961 102.32 21.5304 101.989 22.4052 102.359C23.2447 102.715 23.6875 104.001 24.5851 104.315C25.4508 104.619 26.5222 104.488 27.4373 104.751C28.3231 105.005 29.3141 104.964 30.2422 105.178C31.1435 105.386 31.8319 106.631 32.7694 106.799C33.6829 106.963 34.7534 106.526 35.698 106.65C36.6204 106.771 37.6931 105.695 38.642 105.776C39.5707 105.856 40.4459 106.354 41.3971 106.395C42.3297 106.434 43.2518 106.813 44.2032 106.813C45.1544 106.813 46.1361 107.636 47.0685 107.596C48.0196 107.556 48.8807 106.309 49.8094 106.229C50.7584 106.148 51.8903 107.451 52.8128 107.329C53.7573 107.206 54.5054 105.93 55.4189 105.767C56.3567 105.599 57.5679 106.51 58.4694 106.302C59.3976 106.088 59.9486 104.604 60.8344 104.35C61.7496 104.087 62.884 104.443 63.7496 104.14C64.6473 103.825 65.7409 103.876 66.5807 103.52C67.4554 103.15 68.0832 102.273 68.8896 101.861C69.7335 101.43 70.1226 100.36 70.8855 99.8867C71.6879 99.3886 72.9103 99.4522 73.6159 98.911C74.3609 98.3397 75.7566 98.3099 76.3853 97.6953C77.0502 97.0452 77.3193 95.9537 77.8442 95.2605C78.397 94.5304 77.312 92.9869 77.698 92.2153C78.0985 91.4146 79.7732 91.0892 79.981 90.2508C80.1953 89.3752 80.3053 88.4805 80.3091 87.5829C80.3091 86.7064 78.8768 86.0366 78.6672 85.1911C78.4594 84.3526 79.5135 83.1482 79.1128 82.3473C78.7267 81.5756 78.7761 80.3893 78.223 79.6592C77.698 78.9661 76.3879 78.6943 75.723 78.0443C75.0943 77.4298 73.9691 77.2583 73.2242 76.6871C72.5186 76.1461 72.6085 74.5143 71.8062 74.0162C71.0433 73.5427 69.9782 73.3266 69.1343 72.8953C68.3279 72.4832 67.1868 72.5526 66.3121 72.1822C65.4725 71.8267 64.1575 72.5273 63.2599 72.2128C62.3942 71.9095 61.6921 71.2466 60.7769 70.984C59.8912 70.7297 59.475 68.7908 58.5469 68.5768C57.6456 68.3689 56.5366 68.7139 55.5991 68.546C54.6856 68.3823 53.4565 69.9121 52.5119 69.7881C51.5895 69.6671 50.8996 67.625 49.9507 67.5435C49.022 67.4637 47.9748 68.5214 47.0237 68.4812C46.091 68.4417 45.1546 69.0614 44.2032 69.0614C43.2519 69.0614 42.3041 68.2109 41.3717 68.2503C40.4206 68.2906 39.5819 69.4146 38.6532 69.4943C37.7042 69.5758 36.5393 67.8662 35.6168 67.9872C34.6723 68.1111 33.9424 69.4328 33.029 69.5964C32.0912 69.7644 30.9166 68.9438 30.0151 69.1517C29.0868 69.3658 28.5284 70.7705 27.6425 71.0248C26.7274 71.2875 26.1635 72.2785 25.2979 72.5818C24.4002 72.8963 22.7326 71.4247 21.8929 71.7803C21.0182 72.1507 20.2626 72.7918 19.4563 73.2039C18.6124 73.6352 17.2709 73.4183 16.508 73.892C15.7056 74.3901 15.5083 75.7273 14.8027 76.2684C14.0578 76.8397 12.829 77.0117 12.2003 77.6264C11.5354 78.2765 11.4431 79.4413 10.9181 80.1345C10.3653 80.8645 10.3825 81.8761 9.99654 82.6477C9.596 83.4484 8.52662 84.0541 8.31883 84.8925C8.10938 85.7377 7.48881 86.7066 7.48881 87.5828Z" fill="#3F3D56"/>
<path d="M107.929 103.655C107.929 103.655 76.4146 88.74 56.056 94.3975C35.6975 100.055 7.25125 90.283 3.90464 93.626C0.55803 96.969 -4.18301 132.971 35.9763 135.028C76.1357 137.085 110.438 128.856 110.438 128.856L107.929 103.655Z" fill="#FBBEBE"/>
<path d="M115.35 102.067C115.35 102.067 102.908 101.341 103.466 105.455C104.024 109.57 104.582 141.457 107.928 142.229C111.275 143 137.769 143 148.645 143H210V93.6999C210 93.6999 166.494 91.3116 144.741 101.341C144.741 101.341 118.588 100.993 115.35 102.067Z" fill="#0EB34D"/>
<path d="M57.0652 24.9543C58.254 25.0162 59.4006 25.3822 60.3764 26.0114C61.3522 26.6405 62.1187 27.5078 62.5899 28.5161C63.9713 31.5953 62.1926 35.2122 59.5224 37.4575C56.8523 39.7029 53.4222 40.9863 50.3058 42.6733C46.1198 44.9391 42.3585 48.0846 40.264 52.1222C38.1696 56.1598 37.9468 61.1612 40.4087 65.0185C42.6938 68.5988 46.8489 70.7415 50.8117 72.7177" stroke="#3F3D56" stroke-miterlimit="10"/>
<path d="M45.9099 6.18188C47.0987 6.2438 48.2453 6.60985 49.2211 7.23898C50.197 7.86811 50.9634 8.73545 51.4346 9.74375C52.8161 12.8229 51.0373 16.4398 48.3672 18.6851C45.697 20.9305 42.267 22.2139 39.1505 23.9009C34.9646 26.1668 31.2032 29.3122 29.1087 33.3498C27.0143 37.3874 26.7915 42.3889 29.2535 46.2461C31.5386 49.8264 35.6936 51.9691 39.6565 53.9453" stroke="#3F3D56" stroke-miterlimit="10"/>
<path d="M9.23164 10.4995C10.2128 9.87737 11.3624 9.51958 12.5517 9.46622C13.741 9.41285 14.9229 9.66602 15.9649 10.1973C19.1014 11.8523 20.0962 15.7163 19.4755 18.999C18.8549 22.2817 16.9947 25.2327 15.6505 28.3258C13.8449 32.4804 12.9589 37.0907 13.9834 41.4657C15.0078 45.8406 18.1521 49.9211 22.6597 51.5814C26.8435 53.1225 31.5516 52.4714 35.9971 51.797" stroke="#3F3D56" stroke-miterlimit="10"/>
<path d="M41.5538 49.3069C37.8573 49.3069 34.8606 47.9648 34.8606 46.3092C34.8606 44.6536 37.8573 43.3115 41.5538 43.3115C45.2504 43.3115 48.2471 44.6536 48.2471 46.3092C48.2471 47.9648 45.2504 49.3069 41.5538 49.3069Z" fill="#57B894"/>
<path d="M42.3903 48.7927C38.6937 48.7927 35.697 47.4505 35.697 45.795C35.697 44.1394 38.6937 42.7972 42.3903 42.7972C46.0868 42.7972 49.0835 44.1394 49.0835 45.795C49.0835 47.4505 46.0868 48.7927 42.3903 48.7927Z" stroke="#3F3D56" stroke-miterlimit="10"/>
<path d="M27.0519 46.7354C23.3553 46.7354 20.3587 45.3933 20.3587 43.7377C20.3587 42.0821 23.3553 40.74 27.0519 40.74C30.7485 40.74 33.7451 42.0821 33.7451 43.7377C33.7451 45.3933 30.7485 46.7354 27.0519 46.7354Z" fill="#57B894"/>
<path d="M27.8883 46.2211C24.1917 46.2211 21.1951 44.8789 21.1951 43.2234C21.1951 41.5678 24.1917 40.2256 27.8883 40.2256C31.5849 40.2256 34.5815 41.5678 34.5815 43.2234C34.5815 44.8789 31.5849 46.2211 27.8883 46.2211Z" stroke="#3F3D56" stroke-miterlimit="10"/>
<path d="M24.8209 58.0502C21.1244 58.0502 18.1277 56.7081 18.1277 55.0525C18.1277 53.3969 21.1244 52.0548 24.8209 52.0548C28.5175 52.0548 31.5142 53.3969 31.5142 55.0525C31.5142 56.7081 28.5175 58.0502 24.8209 58.0502Z" fill="#57B894"/>
<path d="M25.6574 57.5359C21.9608 57.5359 18.9641 56.1938 18.9641 54.5382C18.9641 52.8826 21.9608 51.5405 25.6574 51.5405C29.3539 51.5405 32.3506 52.8826 32.3506 54.5382C32.3506 56.1938 29.3539 57.5359 25.6574 57.5359Z" stroke="#3F3D56" stroke-miterlimit="10"/>
<path d="M26.215 29.7631C22.5184 29.7631 19.5217 28.4209 19.5217 26.7653C19.5217 25.1098 22.5184 23.7676 26.215 23.7676C29.9115 23.7676 32.9082 25.1098 32.9082 26.7653C32.9082 28.4209 29.9115 29.7631 26.215 29.7631Z" fill="#57B894"/>
<path d="M27.0519 29.2488C23.3553 29.2488 20.3587 27.9067 20.3587 26.2511C20.3587 24.5955 23.3553 23.2534 27.0519 23.2534C30.7485 23.2534 33.7451 24.5955 33.7451 26.2511C33.7451 27.9067 30.7485 29.2488 27.0519 29.2488Z" stroke="#3F3D56" stroke-miterlimit="10"/>
<path d="M42.9484 27.963C39.2518 27.963 36.2551 26.6208 36.2551 24.9652C36.2551 23.3097 39.2518 21.9675 42.9484 21.9675C46.6449 21.9675 49.6416 23.3097 49.6416 24.9652C49.6416 26.6208 46.6449 27.963 42.9484 27.963Z" fill="#57B894"/>
<path d="M43.7848 27.4487C40.0882 27.4487 37.0916 26.1065 37.0916 24.451C37.0916 22.7954 40.0882 21.4532 43.7848 21.4532C47.4814 21.4532 50.478 22.7954 50.478 24.451C50.478 26.1065 47.4814 27.4487 43.7848 27.4487Z" stroke="#3F3D56" stroke-miterlimit="10"/>
<path d="M35.4181 21.534C31.7215 21.534 28.7249 20.1919 28.7249 18.5363C28.7249 16.8808 31.7215 15.5386 35.4181 15.5386C39.1147 15.5386 42.1113 16.8808 42.1113 18.5363C42.1113 20.1919 39.1147 21.534 35.4181 21.534Z" fill="#57B894"/>
<path d="M36.255 21.0198C32.5585 21.0198 29.5618 19.6777 29.5618 18.0221C29.5618 16.3665 32.5585 15.0244 36.255 15.0244C39.9516 15.0244 42.9482 16.3665 42.9482 18.0221C42.9482 19.6777 39.9516 21.0198 36.255 21.0198Z" stroke="#3F3D56" stroke-miterlimit="10"/>
<path d="M18.964 22.8199C15.2674 22.8199 12.2708 21.4778 12.2708 19.8222C12.2708 18.1666 15.2674 16.8245 18.964 16.8245C22.6606 16.8245 25.6572 18.1666 25.6572 19.8222C25.6572 21.4778 22.6606 22.8199 18.964 22.8199Z" fill="#57B894"/>
<path d="M19.8009 22.3055C16.1043 22.3055 13.1077 20.9634 13.1077 19.3078C13.1077 17.6522 16.1043 16.3101 19.8009 16.3101C23.4975 16.3101 26.4941 17.6522 26.4941 19.3078C26.4941 20.9634 23.4975 22.3055 19.8009 22.3055Z" stroke="#3F3D56" stroke-miterlimit="10"/>
<path d="M6.69299 31.306C2.99643 31.306 -0.000228882 29.9639 -0.000228882 28.3083C-0.000228882 26.6527 2.99643 25.3106 6.69299 25.3106C10.3896 25.3106 13.3862 26.6527 13.3862 28.3083C13.3862 29.9639 10.3896 31.306 6.69299 31.306Z" fill="#57B894"/>
<path d="M7.52992 30.7917C3.83335 30.7917 0.8367 29.4496 0.8367 27.794C0.8367 26.1384 3.83335 24.7963 7.52992 24.7963C11.2265 24.7963 14.2231 26.1384 14.2231 27.794C14.2231 29.4496 11.2265 30.7917 7.52992 30.7917Z" stroke="#3F3D56" stroke-miterlimit="10"/>
<path d="M49.9205 16.3909C46.224 16.3909 43.2273 15.0488 43.2273 13.3932C43.2273 11.7376 46.224 10.3955 49.9205 10.3955C53.6171 10.3955 56.6138 11.7376 56.6138 13.3932C56.6138 15.0488 53.6171 16.3909 49.9205 16.3909Z" fill="#57B894"/>
<path d="M50.757 15.8766C47.0604 15.8766 44.0638 14.5345 44.0638 12.8789C44.0638 11.2233 47.0604 9.88123 50.757 9.88123C54.4535 9.88123 57.4502 11.2233 57.4502 12.8789C57.4502 14.5345 54.4535 15.8766 50.757 15.8766Z" stroke="#3F3D56" stroke-miterlimit="10"/>
<path d="M45.737 6.61901C42.0404 6.61901 39.0437 5.27689 39.0437 3.6213C39.0437 1.96572 42.0404 0.623596 45.737 0.623596C49.4335 0.623596 52.4302 1.96572 52.4302 3.6213C52.4302 5.27689 49.4335 6.61901 45.737 6.61901Z" fill="#57B894"/>
<path d="M46.5739 6.10467C42.8773 6.10467 39.8806 4.76255 39.8806 3.10696C39.8806 1.45137 42.8773 0.109253 46.5739 0.109253C50.2704 0.109253 53.2671 1.45137 53.2671 3.10696C53.2671 4.76255 50.2704 6.10467 46.5739 6.10467Z" stroke="#3F3D56" stroke-miterlimit="10"/>
<path d="M6.97229 13.8194C3.27572 13.8194 0.279068 12.4773 0.279068 10.8217C0.279068 9.16609 3.27572 7.82397 6.97229 7.82397C10.6689 7.82397 13.6655 9.16609 13.6655 10.8217C13.6655 12.4773 10.6689 13.8194 6.97229 13.8194Z" fill="#57B894"/>
<path d="M7.80874 13.305C4.11217 13.305 1.11551 11.9629 1.11551 10.3073C1.11551 8.65175 4.11217 7.30963 7.80874 7.30963C11.5053 7.30963 14.502 8.65175 14.502 10.3073C14.502 11.9629 11.5053 13.305 7.80874 13.305Z" stroke="#3F3D56" stroke-miterlimit="10"/>
<path d="M68.6056 37.4778C64.909 37.4778 61.9124 36.1357 61.9124 34.4801C61.9124 32.8245 64.909 31.4824 68.6056 31.4824C72.3022 31.4824 75.2988 32.8245 75.2988 34.4801C75.2988 36.1357 72.3022 37.4778 68.6056 37.4778Z" fill="#57B894"/>
<path d="M69.442 36.9634C65.7455 36.9634 62.7488 35.6213 62.7488 33.9657C62.7488 32.3101 65.7455 30.968 69.442 30.968C73.1386 30.968 76.1353 32.3101 76.1353 33.9657C76.1353 35.6213 73.1386 36.9634 69.442 36.9634Z" stroke="#3F3D56" stroke-miterlimit="10"/>
<path d="M45.4581 35.9348C41.7616 35.9348 38.7649 34.5927 38.7649 32.9371C38.7649 31.2815 41.7616 29.9394 45.4581 29.9394C49.1547 29.9394 52.1514 31.2815 52.1514 32.9371C52.1514 34.5927 49.1547 35.9348 45.4581 35.9348Z" fill="#57B894"/>
<path d="M46.2951 35.4205C42.5985 35.4205 39.6018 34.0784 39.6018 32.4228C39.6018 30.7672 42.5985 29.4251 46.2951 29.4251C49.9916 29.4251 52.9883 30.7672 52.9883 32.4228C52.9883 34.0784 49.9916 35.4205 46.2951 35.4205Z" stroke="#3F3D56" stroke-miterlimit="10"/>
<path d="M15.0597 38.2492C11.3631 38.2492 8.36649 36.9071 8.36649 35.2515C8.36649 33.5959 11.3631 32.2538 15.0597 32.2538C18.7563 32.2538 21.7529 33.5959 21.7529 35.2515C21.7529 36.9071 18.7563 38.2492 15.0597 38.2492Z" fill="#57B894"/>
<path d="M15.8966 37.7349C12.2001 37.7349 9.2034 36.3928 9.2034 34.7372C9.2034 33.0816 12.2001 31.7395 15.8966 31.7395C19.5932 31.7395 22.5898 33.0816 22.5898 34.7372C22.5898 36.3928 19.5932 37.7349 15.8966 37.7349Z" stroke="#3F3D56" stroke-miterlimit="10"/>
<path d="M31.235 39.2779C27.5384 39.2779 24.5418 37.9358 24.5418 36.2802C24.5418 34.6246 27.5384 33.2825 31.235 33.2825C34.9316 33.2825 37.9282 34.6246 37.9282 36.2802C37.9282 37.9358 34.9316 39.2779 31.235 39.2779Z" fill="#57B894"/>
<path d="M32.0719 38.7635C28.3753 38.7635 25.3787 37.4214 25.3787 35.7658C25.3787 34.1102 28.3753 32.7681 32.0719 32.7681C35.7685 32.7681 38.7651 34.1102 38.7651 35.7658C38.7651 37.4214 35.7685 38.7635 32.0719 38.7635Z" stroke="#3F3D56" stroke-miterlimit="10"/>
<path d="M30.1193 13.5623C26.4227 13.5623 23.4261 12.2201 23.4261 10.5645C23.4261 8.90895 26.4227 7.56683 30.1193 7.56683C33.8158 7.56683 36.8125 8.90895 36.8125 10.5645C36.8125 12.2201 33.8158 13.5623 30.1193 13.5623Z" fill="#57B894"/>
<path d="M30.9562 13.0479C27.2596 13.0479 24.263 11.7058 24.263 10.0502C24.263 8.39461 27.2596 7.05249 30.9562 7.05249C34.6528 7.05249 37.6494 8.39461 37.6494 10.0502C37.6494 11.7058 34.6528 13.0479 30.9562 13.0479Z" stroke="#3F3D56" stroke-miterlimit="10"/>
<path d="M58.8448 29.5059C55.1483 29.5059 52.1516 28.1638 52.1516 26.5082C52.1516 24.8526 55.1483 23.5105 58.8448 23.5105C62.5414 23.5105 65.5381 24.8526 65.5381 26.5082C65.5381 28.1638 62.5414 29.5059 58.8448 29.5059Z" fill="#57B894"/>
<path d="M59.6813 28.9916C55.9847 28.9916 52.9881 27.6495 52.9881 25.9939C52.9881 24.3383 55.9847 22.9962 59.6813 22.9962C63.3779 22.9962 66.3745 24.3383 66.3745 25.9939C66.3745 27.6495 63.3779 28.9916 59.6813 28.9916Z" stroke="#3F3D56" stroke-miterlimit="10"/>
<path d="M54.9401 41.0779C51.2435 41.0779 48.2469 39.7358 48.2469 38.0802C48.2469 36.4246 51.2435 35.0825 54.9401 35.0825C58.6366 35.0825 61.6333 36.4246 61.6333 38.0802C61.6333 39.7358 58.6366 41.0779 54.9401 41.0779Z" fill="#57B894"/>
<path d="M55.777 40.5637C52.0804 40.5637 49.0838 39.2215 49.0838 37.5659C49.0838 35.9104 52.0804 34.5682 55.777 34.5682C59.4736 34.5682 62.4702 35.9104 62.4702 37.5659C62.4702 39.2215 59.4736 40.5637 55.777 40.5637Z" stroke="#3F3D56" stroke-miterlimit="10"/>
<g opacity="0.3">
<path opacity="0.3" d="M54.7846 58.5487C53.8398 56.9899 53.6674 55.4204 54.3995 55.0431C55.1315 54.6658 56.4909 55.6236 57.4358 57.1824C58.3806 58.7412 58.553 60.3107 57.8209 60.688C57.0888 61.0652 55.7294 60.1074 54.7846 58.5487Z" fill="#57B894"/>
<path opacity="0.3" d="M55.226 58.7842C54.2812 57.2255 54.1088 55.656 54.8409 55.2787C55.573 54.9014 56.9324 55.8592 57.8772 57.418C58.822 58.9768 58.9944 60.5463 58.2623 60.9236C57.5302 61.3008 56.1708 60.343 55.226 58.7842Z" stroke="#3F3D56" stroke-miterlimit="10"/>
</g>
<g opacity="0.3">
<path opacity="0.3" d="M19.8963 66.0213C19.337 65.4451 20.0534 64.0125 21.4965 62.8216C22.9395 61.6308 24.5628 61.1325 25.1221 61.7088C25.6814 62.285 24.9649 63.7175 23.5219 64.9084C22.0788 66.0993 20.4556 66.5976 19.8963 66.0213Z" fill="#57B894"/>
<path opacity="0.3" d="M20.0491 65.5728C19.4898 64.9965 20.2062 63.564 21.6493 62.3731C23.0923 61.1822 24.7156 60.6839 25.2749 61.2602C25.8342 61.8364 25.1178 63.269 23.6747 64.4599C22.2316 65.6508 20.6084 66.149 20.0491 65.5728Z" stroke="#3F3D56" stroke-miterlimit="10"/>
</g>
<g opacity="0.3">
<path opacity="0.3" d="M51.1316 49.8205C50.5723 49.2443 51.2887 47.8117 52.7318 46.6208C54.1749 45.4299 55.7981 44.9317 56.3574 45.5079C56.9167 46.0842 56.2003 47.5167 54.7572 48.7076C53.3142 49.8985 51.6909 50.3968 51.1316 49.8205Z" fill="#57B894"/>
<path opacity="0.3" d="M51.2844 49.372C50.7251 48.7957 51.4416 47.3632 52.8846 46.1723C54.3277 44.9814 55.9509 44.4831 56.5102 45.0594C57.0695 45.6356 56.3531 47.0682 54.9101 48.2591C53.467 49.45 51.8438 49.9482 51.2844 49.372Z" stroke="#3F3D56" stroke-miterlimit="10"/>
</g>
</g>
<defs>
<clipPath id="clip0_417_73">
<rect width="210" height="143" fill="white" transform="matrix(-1 0 0 1 210 0)"/>
</clipPath>
</defs>
</svg>
