<svg width="116" height="53" viewBox="0 0 116 53" fill="none" xmlns="http://www.w3.org/2000/svg">
<g filter="url(#filter0_d_465_337)">
<g clip-path="url(#clip0_465_337)">
<path d="M49 22.5C49.004 25.5458 48.3875 28.5605 47.188 31.3602L47.1135 31.532C45.0845 36.1477 41.5664 39.9498 37.1216 42.3302C32.6769 44.7106 27.5623 45.5318 22.5958 44.6625C22.4607 44.6385 22.3257 44.6137 22.1911 44.5879C20.7993 44.3182 19.4365 43.9163 18.1211 43.3877C17.9074 43.3018 17.6953 43.2129 17.4847 43.1208C17.3409 43.0582 17.1971 42.9936 17.0547 42.9271C13.1577 41.121 9.85833 38.2384 7.54537 34.6193C5.23241 31.0001 4.00229 26.7951 4 22.5C4 10.0737 14.0737 0 26.5 0C38.9263 0 49 10.0737 49 22.5Z" fill="#0EB34D"/>
<path opacity="0.2" d="M22.5957 44.6625C22.4606 44.6385 22.3257 44.6137 22.191 44.5879C22.1031 42.0377 21.8016 36.8035 20.7731 31.3216C20.2106 28.3214 19.4298 25.2459 18.3467 22.4967C17.9757 21.5454 17.5519 20.6155 17.0773 19.7114C15.9829 17.6445 14.6555 15.9044 13.0459 14.7255L13.2829 14.402C14.6216 15.3832 15.8247 16.7607 16.8922 18.5345C17.2124 19.0657 17.5199 19.6325 17.8148 20.2347C18.131 20.879 18.4326 21.5631 18.7195 22.287C18.9026 22.7476 19.0794 23.2242 19.25 23.7168C19.9929 25.8557 20.6245 28.2961 21.1446 31.038C21.2597 31.6438 21.3693 32.2644 21.4734 32.8999C22.2796 37.8239 22.5225 42.3765 22.5957 44.6625Z" fill="black"/>
<path opacity="0.2" d="M17.4845 43.1208C17.3407 43.0583 17.1969 42.9937 17.0545 42.9271C16.9153 41.416 16.6597 39.5415 16.1924 37.7621C15.9877 36.9629 15.725 36.1798 15.4062 35.4189C14.873 34.1708 14.1827 33.1097 13.29 32.4553L13.527 32.1324C14.4616 32.8168 15.1826 33.8985 15.7397 35.164C16.3675 36.5898 16.7862 38.2494 17.0651 39.835C17.2721 41.0126 17.4026 42.1503 17.4845 43.1208Z" fill="black"/>
<path opacity="0.2" d="M10.8071 14.7162C11.9133 14.7162 12.8101 13.8195 12.8101 12.7133C12.8101 11.6071 11.9133 10.7103 10.8071 10.7103C9.70094 10.7103 8.8042 11.6071 8.8042 12.7133C8.8042 13.8195 9.70094 14.7162 10.8071 14.7162Z" fill="black"/>
<path opacity="0.2" d="M11.4522 31.9579C12.5583 31.9579 13.4551 31.0612 13.4551 29.955C13.4551 28.8488 12.5583 27.952 11.4522 27.952C10.346 27.952 9.44922 28.8488 9.44922 29.955C9.44922 31.0612 10.346 31.9579 11.4522 31.9579Z" fill="black"/>
<path opacity="0.2" d="M18.7593 16.0776C18.3346 18.4738 19.2722 20.6436 19.2722 20.6436C19.2722 20.6436 20.8985 18.9283 21.3232 16.532C21.7479 14.1357 20.8103 11.9659 20.8103 11.9659C20.8103 11.9659 19.1841 13.6813 18.7593 16.0776Z" fill="black"/>
<path opacity="0.2" d="M12.1023 21.7659C14.3879 22.6016 16.6846 22.0653 16.6846 22.0653C16.6846 22.0653 15.2757 20.1739 12.99 19.3381C10.7044 18.5024 8.40771 19.0387 8.40771 19.0387C8.40771 19.0387 9.8167 20.9301 12.1023 21.7659Z" fill="black"/>
<path opacity="0.2" d="M11.7148 37.034C13.3168 37.6198 14.9289 37.2376 14.9289 37.2376C14.9289 37.2376 13.9436 35.9057 12.3416 35.3199C10.7395 34.7341 9.12744 35.1162 9.12744 35.1162C9.12744 35.1162 10.1128 36.4482 11.7148 37.034Z" fill="black"/>
<path d="M26.4538 27.4826C31.2983 27.4826 35.2255 23.5554 35.2255 18.7109C35.2255 13.8664 31.2983 9.93921 26.4538 9.93921C21.6093 9.93921 17.6821 13.8664 17.6821 18.7109C17.6821 23.5554 21.6093 27.4826 26.4538 27.4826Z" fill="#D0CDE1"/>
<path d="M23.0273 25.4267C23.0273 25.4267 24.1238 30.6349 24.1238 31.1831C24.1238 31.7313 29.332 34.1984 29.332 34.1984L33.9919 33.376L35.6366 28.442C35.6366 28.442 32.8955 24.3302 32.8955 22.6855L23.0273 25.4267Z" fill="#D0CDE1"/>
<path d="M47.188 31.3603L47.1134 31.532C45.0844 36.1478 41.5663 39.9499 37.1216 42.3303C32.6768 44.7107 27.5622 45.5319 22.5957 44.6626C22.4606 44.6386 22.3257 44.6137 22.191 44.588C20.7993 44.3182 19.4364 43.9163 18.121 43.3878C17.9073 43.3019 17.6952 43.2129 17.4846 43.1208C17.3408 43.0583 17.197 42.9937 17.0546 42.9271C15.7634 42.3289 14.5319 41.6094 13.3767 40.7783L12.3369 37.7621L12.9214 37.3161L14.1236 36.3981L15.4064 35.4189L15.7399 35.164L20.7731 31.3217L21.1445 31.0381L23.7607 29.041L23.7613 29.0404C23.7613 29.0404 26.5905 33.6502 30.7024 32.2796C34.8143 30.9089 34.7244 26.9788 34.7244 26.9788L47.188 31.3603Z" fill="#2F2E41"/>
<path d="M18.8471 11.6438C18.8471 11.6438 21.6321 5.60972 26.97 7.0022C32.3079 8.39469 35.3249 10.4834 35.557 12.5722C35.7891 14.6609 35.441 17.794 35.441 17.794C35.441 17.794 34.8608 13.5005 31.1475 14.4288C27.4342 15.3571 21.6321 14.6609 21.6321 14.6609L20.7038 23.0158C20.7038 23.0158 19.6594 21.5073 18.499 22.4356C17.3386 23.3639 15.1338 13.5005 18.8471 11.6438Z" fill="#2F2E41"/>
<path d="M18.1212 43.3877C17.9076 43.3019 17.6954 43.2129 17.4848 43.1208C17.3411 43.0582 17.1973 42.9937 17.0548 42.9271C14.9193 41.9368 12.9519 40.6183 11.2241 39.0196C11.8359 38.1861 12.3371 37.7621 12.3371 37.7621H16.449L17.0655 39.835L18.1212 43.3877Z" fill="#2F2E41"/>
<path d="M43.5859 30.9089L47.1134 31.532C46.1694 33.6825 44.8945 35.6719 43.335 37.4279L43.5859 30.9089Z" fill="#2F2E41"/>
</g>
<g filter="url(#filter1_d_465_337)">
<path d="M75.5169 14.9091V28H73.9828L66.8493 17.7216H66.7215V28H65.1362V14.9091H66.6703L73.8294 25.213H73.9573V14.9091H75.5169Z" fill="black"/>
<path d="M81.0676 28.2301C80.4455 28.2301 79.8808 28.1129 79.3737 27.8785C78.8666 27.6399 78.4639 27.2968 78.1656 26.8494C77.8674 26.3977 77.7182 25.8522 77.7182 25.213C77.7182 24.6505 77.829 24.1946 78.0506 23.8451C78.2722 23.4914 78.5683 23.2145 78.9391 23.0142C79.3098 22.8139 79.7189 22.6647 80.1664 22.5667C80.6181 22.4645 81.0719 22.3835 81.5279 22.3238C82.1245 22.2471 82.6081 22.1896 82.9789 22.1512C83.3539 22.1086 83.6266 22.0383 83.797 21.9403C83.9717 21.8423 84.0591 21.6718 84.0591 21.4289V21.3778C84.0591 20.7471 83.8865 20.2571 83.5414 19.9076C83.2004 19.5582 82.6827 19.3835 81.9881 19.3835C81.2679 19.3835 80.7033 19.5412 80.2942 19.8565C79.8851 20.1718 79.5975 20.5085 79.4313 20.8664L77.9995 20.3551C78.2551 19.7585 78.596 19.294 79.0222 18.9616C79.4526 18.625 79.9213 18.3906 80.4284 18.2585C80.9398 18.1221 81.4426 18.0539 81.937 18.0539C82.2523 18.0539 82.6145 18.0923 83.0236 18.169C83.4369 18.2414 83.8354 18.3927 84.2189 18.6228C84.6067 18.8529 84.9284 19.2003 85.1841 19.6647C85.4398 20.1292 85.5676 20.7514 85.5676 21.5312V28H84.0591V26.6704H83.9824C83.8801 26.8835 83.7097 27.1115 83.471 27.3544C83.2324 27.5973 82.9149 27.8039 82.5186 27.9744C82.1223 28.1449 81.6386 28.2301 81.0676 28.2301ZM81.2977 26.875C81.8943 26.875 82.3972 26.7578 82.8063 26.5234C83.2196 26.289 83.5307 25.9865 83.7395 25.6157C83.9526 25.245 84.0591 24.8551 84.0591 24.446V23.0653C83.9952 23.142 83.8546 23.2123 83.6372 23.2762C83.4242 23.3359 83.177 23.3892 82.8958 23.436C82.6188 23.4787 82.3482 23.517 82.084 23.5511C81.824 23.5809 81.6131 23.6065 81.4512 23.6278C81.0591 23.6789 80.6926 23.762 80.3517 23.8771C80.0151 23.9879 79.7423 24.1562 79.5335 24.3821C79.329 24.6037 79.2267 24.9062 79.2267 25.2897C79.2267 25.8139 79.4206 26.2102 79.8084 26.4787C80.2004 26.7429 80.6969 26.875 81.2977 26.875Z" fill="black"/>
<path d="M88.015 28V18.1818H89.4724V19.7159H89.6002C89.8048 19.1917 90.135 18.7848 90.591 18.495C91.047 18.201 91.5945 18.0539 92.2337 18.0539C92.8815 18.0539 93.4205 18.201 93.8509 18.495C94.2856 18.7848 94.6244 19.1917 94.8673 19.7159H94.9695C95.221 19.2088 95.5981 18.8061 96.1009 18.5078C96.6038 18.2052 97.2068 18.0539 97.9099 18.0539C98.7877 18.0539 99.5058 18.3288 100.064 18.8785C100.622 19.424 100.901 20.2741 100.901 21.4289V28H99.3929V21.4289C99.3929 20.7045 99.1947 20.1868 98.7984 19.8757C98.4021 19.5646 97.9355 19.4091 97.3985 19.4091C96.7082 19.4091 96.1734 19.6179 95.7941 20.0355C95.4149 20.4488 95.2252 20.973 95.2252 21.6079V28H93.6911V21.2755C93.6911 20.7173 93.51 20.2677 93.1478 19.9268C92.7856 19.5816 92.319 19.4091 91.748 19.4091C91.3559 19.4091 90.9894 19.5135 90.6485 19.7223C90.3119 19.9311 90.0392 20.2208 89.8304 20.5916C89.6258 20.9581 89.5235 21.3821 89.5235 21.8636V28H88.015Z" fill="black"/>
<path d="M107.47 28.2045C106.524 28.2045 105.708 27.9957 105.022 27.5781C104.34 27.1562 103.814 26.5681 103.443 25.8139C103.077 25.0554 102.893 24.1733 102.893 23.1676C102.893 22.1619 103.077 21.2755 103.443 20.5085C103.814 19.7372 104.329 19.1363 104.99 18.7059C105.655 18.2713 106.43 18.0539 107.317 18.0539C107.828 18.0539 108.333 18.1392 108.832 18.3096C109.33 18.4801 109.784 18.7571 110.193 19.1406C110.602 19.5199 110.928 20.0227 111.171 20.6491C111.414 21.2755 111.535 22.0468 111.535 22.963V23.6022H103.967V22.2983H110.001C110.001 21.7443 109.89 21.25 109.669 20.8153C109.452 20.3806 109.14 20.0376 108.736 19.7862C108.335 19.5348 107.862 19.4091 107.317 19.4091C106.716 19.4091 106.196 19.5582 105.757 19.8565C105.322 20.1505 104.988 20.5341 104.753 21.0071C104.519 21.4801 104.402 21.9872 104.402 22.5284V23.3977C104.402 24.1392 104.53 24.7677 104.785 25.2833C105.045 25.7947 105.405 26.1846 105.866 26.4531C106.326 26.7173 106.861 26.8494 107.47 26.8494C107.866 26.8494 108.224 26.794 108.544 26.6832C108.868 26.5681 109.147 26.3977 109.381 26.1718C109.616 25.9417 109.797 25.6562 109.925 25.3153L111.382 25.7244C111.229 26.2187 110.971 26.6534 110.609 27.0284C110.246 27.3991 109.799 27.6889 109.266 27.8977C108.734 28.1022 108.135 28.2045 107.47 28.2045Z" fill="black"/>
</g>
</g>
<defs>
<filter id="filter0_d_465_337" x="0" y="0" width="115.535" height="53" filterUnits="userSpaceOnUse" color-interpolation-filters="sRGB">
<feFlood flood-opacity="0" result="BackgroundImageFix"/>
<feColorMatrix in="SourceAlpha" type="matrix" values="0 0 0 0 0 0 0 0 0 0 0 0 0 0 0 0 0 0 127 0" result="hardAlpha"/>
<feOffset dy="4"/>
<feGaussianBlur stdDeviation="2"/>
<feComposite in2="hardAlpha" operator="out"/>
<feColorMatrix type="matrix" values="0 0 0 0 0 0 0 0 0 0 0 0 0 0 0 0 0 0 0.25 0"/>
<feBlend mode="normal" in2="BackgroundImageFix" result="effect1_dropShadow_465_337"/>
<feBlend mode="normal" in="SourceGraphic" in2="effect1_dropShadow_465_337" result="shape"/>
</filter>
<filter id="filter1_d_465_337" x="61.1362" y="14.9091" width="54.3989" height="21.321" filterUnits="userSpaceOnUse" color-interpolation-filters="sRGB">
<feFlood flood-opacity="0" result="BackgroundImageFix"/>
<feColorMatrix in="SourceAlpha" type="matrix" values="0 0 0 0 0 0 0 0 0 0 0 0 0 0 0 0 0 0 127 0" result="hardAlpha"/>
<feOffset dy="4"/>
<feGaussianBlur stdDeviation="2"/>
<feComposite in2="hardAlpha" operator="out"/>
<feColorMatrix type="matrix" values="0 0 0 0 0 0 0 0 0 0 0 0 0 0 0 0 0 0 0.25 0"/>
<feBlend mode="normal" in2="BackgroundImageFix" result="effect1_dropShadow_465_337"/>
<feBlend mode="normal" in="SourceGraphic" in2="effect1_dropShadow_465_337" result="shape"/>
</filter>
<clipPath id="clip0_465_337">
<rect width="45" height="45" fill="white" transform="translate(4)"/>
</clipPath>
</defs>
</svg>
