<svg width="86" height="86" viewBox="0 0 86 86" fill="none" xmlns="http://www.w3.org/2000/svg">
<g clip-path="url(#clip0_471_108)" filter="url(#filter0_d_471_108)">
<path d="M82 39C82.007 44.2794 80.9383 49.5049 78.8592 54.3577L78.73 54.6554C75.2132 62.6561 69.115 69.2464 61.4108 73.3724C53.7066 77.4984 44.8413 78.9218 36.2327 77.415C35.9985 77.3735 35.7646 77.3304 35.5312 77.2858C33.1188 76.8181 30.7566 76.1215 28.4765 75.2054C28.1062 75.0565 27.7385 74.9023 27.3735 74.7427C27.1242 74.6342 26.875 74.5223 26.6281 74.4069C19.8734 71.2763 14.1544 66.28 10.1453 60.0067C6.13617 53.7335 4.00397 46.4449 4 39C4 17.4612 21.4612 0 43 0C64.5389 0 82 17.4612 82 39Z" fill="#0EB34D"/>
<path opacity="0.2" d="M36.2328 77.415C35.9985 77.3735 35.7647 77.3304 35.5312 77.2858C35.3789 72.8654 34.8562 63.7927 33.0735 54.2908C32.0985 49.0904 30.7451 43.7597 28.8678 38.9943C28.2246 37.3454 27.49 35.7337 26.6674 34.1666C24.7705 30.5839 22.4697 27.5677 19.6797 25.5243L20.0905 24.9635C22.4108 26.6643 24.4962 29.052 26.3466 32.1266C26.9016 33.0473 27.4347 34.0297 27.9458 35.0735C28.4939 36.1904 29.0166 37.3762 29.5139 38.6308C29.8312 39.4293 30.1378 40.2554 30.4335 41.1093C31.7212 44.8166 32.8158 49.0466 33.7174 53.7993C33.917 54.8493 34.107 55.925 34.2874 57.0266C35.6847 65.5616 36.1058 73.4527 36.2328 77.415Z" fill="black"/>
<path opacity="0.2" d="M27.3734 74.7427C27.1242 74.6342 26.8749 74.5223 26.628 74.4069C26.3869 71.7877 25.9438 68.5385 25.1338 65.4542C24.779 64.069 24.3236 62.7116 23.7711 61.3927C22.8469 59.2292 21.6503 57.39 20.103 56.2558L20.5138 55.6962C22.1338 56.8823 23.3834 58.7573 24.3492 60.9508C25.4373 63.4223 26.163 66.2989 26.6465 69.0473C27.0053 71.0885 27.2315 73.0604 27.3734 74.7427Z" fill="black"/>
<path opacity="0.2" d="M15.7994 25.5081C17.7168 25.5081 19.2712 23.9537 19.2712 22.0363C19.2712 20.1189 17.7168 18.5646 15.7994 18.5646C13.882 18.5646 12.3276 20.1189 12.3276 22.0363C12.3276 23.9537 13.882 25.5081 15.7994 25.5081Z" fill="black"/>
<path opacity="0.2" d="M16.9176 55.3938C18.835 55.3938 20.3893 53.8395 20.3893 51.9221C20.3893 50.0047 18.835 48.4503 16.9176 48.4503C15.0002 48.4503 13.4458 50.0047 13.4458 51.9221C13.4458 53.8395 15.0002 55.3938 16.9176 55.3938Z" fill="black"/>
<path opacity="0.2" d="M29.5825 27.8679C28.8463 32.0214 30.4715 35.7824 30.4715 35.7824C30.4715 35.7824 33.2903 32.8091 34.0265 28.6556C34.7627 24.502 33.1375 20.7411 33.1375 20.7411C33.1375 20.7411 30.3187 23.7143 29.5825 27.8679Z" fill="black"/>
<path opacity="0.2" d="M18.0441 37.7274C22.0058 39.1761 25.9868 38.2464 25.9868 38.2464C25.9868 38.2464 23.5446 34.968 19.5828 33.5194C15.6211 32.0707 11.6401 33.0004 11.6401 33.0004C11.6401 33.0004 14.0824 36.2788 18.0441 37.7274Z" fill="black"/>
<path opacity="0.2" d="M17.3724 64.1922C20.1493 65.2076 22.9436 64.5452 22.9436 64.5452C22.9436 64.5452 21.2357 62.2366 18.4588 61.2212C15.682 60.2058 12.8877 60.8682 12.8877 60.8682C12.8877 60.8682 14.5956 63.1768 17.3724 64.1922Z" fill="black"/>
<path d="M42.9201 47.6364C51.3171 47.6364 58.1243 40.8292 58.1243 32.4322C58.1243 24.0351 51.3171 17.2279 42.9201 17.2279C34.523 17.2279 27.7158 24.0351 27.7158 32.4322C27.7158 40.8292 34.523 47.6364 42.9201 47.6364Z" fill="#D0CDE1"/>
<path d="M36.981 44.0729C36.981 44.0729 38.8815 53.1004 38.8815 54.0507C38.8815 55.0009 47.909 59.2771 47.909 59.2771L55.9863 57.8517L58.8371 49.2993C58.8371 49.2993 54.0857 42.1723 54.0857 39.3215L36.981 44.0729Z" fill="#D0CDE1"/>
<path d="M78.8592 54.3577L78.7299 54.6554C75.2131 62.656 69.115 69.2463 61.4107 73.3724C53.7065 77.4984 44.8412 78.9218 36.2326 77.415C35.9984 77.3734 35.7645 77.3304 35.5311 77.2857C33.1188 76.8181 30.7565 76.1215 28.4765 75.2054C28.1061 75.0565 27.7384 74.9023 27.3734 74.7427C27.1241 74.6342 26.8749 74.5223 26.628 74.4069C24.3899 73.37 22.2553 72.1229 20.253 70.6823L18.4507 65.4542L19.4638 64.6811L21.5476 63.09L23.7711 61.3927L24.3491 60.9508L33.0734 54.2908L33.7172 53.7992L38.2518 50.3377L38.253 50.3365C38.253 50.3365 43.1568 58.3269 50.2842 55.9511C57.4115 53.5754 57.2557 46.7631 57.2557 46.7631L78.8592 54.3577Z" fill="#2F2E41"/>
<path d="M29.735 20.1826C29.735 20.1826 34.5623 9.72348 43.8146 12.1371C53.0669 14.5508 58.2965 18.1712 58.6987 21.7917C59.101 25.4122 58.4976 30.8429 58.4976 30.8429C58.4976 30.8429 57.4919 23.4008 51.0555 25.0099C44.6192 26.619 34.5623 25.4122 34.5623 25.4122L32.9532 39.8941C32.9532 39.8941 31.143 37.2793 29.1316 38.8884C27.1202 40.4975 23.2986 23.4008 29.735 20.1826Z" fill="#2F2E41"/>
<path d="M28.4765 75.2054C28.1061 75.0565 27.7384 74.9023 27.3734 74.7427C27.1242 74.6342 26.8749 74.5223 26.628 74.4069C22.9264 72.6904 19.5163 70.4051 16.5215 67.6338C17.5819 66.1892 18.4507 65.4542 18.4507 65.4542H25.578L26.6465 69.0473L28.4765 75.2054Z" fill="#2F2E41"/>
<path d="M72.6157 53.5754L78.7299 54.6554C77.0936 58.383 74.8838 61.8313 72.1807 64.8751L72.6157 53.5754Z" fill="#2F2E41"/>
</g>
<defs>
<filter id="filter0_d_471_108" x="0" y="0" width="86" height="86" filterUnits="userSpaceOnUse" color-interpolation-filters="sRGB">
<feFlood flood-opacity="0" result="BackgroundImageFix"/>
<feColorMatrix in="SourceAlpha" type="matrix" values="0 0 0 0 0 0 0 0 0 0 0 0 0 0 0 0 0 0 127 0" result="hardAlpha"/>
<feOffset dy="4"/>
<feGaussianBlur stdDeviation="2"/>
<feComposite in2="hardAlpha" operator="out"/>
<feColorMatrix type="matrix" values="0 0 0 0 0 0 0 0 0 0 0 0 0 0 0 0 0 0 0.25 0"/>
<feBlend mode="normal" in2="BackgroundImageFix" result="effect1_dropShadow_471_108"/>
<feBlend mode="normal" in="SourceGraphic" in2="effect1_dropShadow_471_108" result="shape"/>
</filter>
<clipPath id="clip0_471_108">
<rect width="78" height="78" fill="white" transform="translate(4)"/>
</clipPath>
</defs>
</svg>
