<svg width="93" height="91" viewBox="0 0 93 91" fill="none" xmlns="http://www.w3.org/2000/svg">
<g clip-path="url(#clip0_414_251)">
<path d="M93 45.5C93.0083 51.6593 91.7342 57.7557 89.2552 63.4173L89.1012 63.7646C84.908 73.0987 77.6372 80.7874 68.4514 85.6011C59.2656 90.4148 48.6954 92.0755 38.4313 90.3175C38.152 90.269 37.8732 90.2188 37.5948 90.1667C34.7186 89.6211 31.9021 88.8084 29.1836 87.7396C28.742 87.566 28.3036 87.386 27.8684 87.1998C27.5712 87.0733 27.274 86.9427 26.9796 86.8081C18.926 83.1557 12.1072 77.3266 7.32709 70.0078C2.54697 62.6891 0.00472795 54.1857 0 45.5C0 20.3713 20.8191 0 46.5 0C72.1809 0 93 20.3713 93 45.5Z" fill="#0EB34D"/>
<path opacity="0.2" d="M38.4312 90.3175C38.1519 90.269 37.8731 90.2188 37.5947 90.1667C37.4131 85.0096 36.7899 74.4248 34.6644 63.3392C33.5019 57.2721 31.8882 51.0529 29.6498 45.4933C28.883 43.5696 28.0071 41.6892 27.0263 39.8609C24.7646 35.6811 22.0214 32.1623 18.6948 29.7783L19.1846 29.124C21.9512 31.1083 24.4376 33.8939 26.6438 37.4809C27.3056 38.5552 27.9412 39.7012 28.5506 40.919C29.2041 42.2221 29.8273 43.6055 30.4203 45.0692C30.7986 46.0008 31.1641 46.9646 31.5167 47.9608C33.052 52.2859 34.3572 57.2209 35.4321 62.7658C35.6701 63.9908 35.8966 65.2458 36.1117 66.5309C37.7777 76.4884 38.2798 85.6948 38.4312 90.3175Z" fill="black"/>
<path opacity="0.2" d="M27.8682 87.1998C27.5711 87.0733 27.2739 86.9427 26.9795 86.8081C26.692 83.7523 26.1637 79.9616 25.1979 76.3633C24.7749 74.7472 24.2319 73.1635 23.5732 71.6248C22.4712 69.1008 21.0446 66.955 19.1997 65.6318L19.6895 64.9789C21.621 66.3627 23.1109 68.5502 24.2624 71.1093C25.5597 73.9927 26.4251 77.3487 27.0015 80.5552C27.4294 82.9366 27.699 85.2371 27.8682 87.1998Z" fill="black"/>
<path opacity="0.2" d="M14.0686 29.7595C16.3547 29.7595 18.208 27.946 18.208 25.7091C18.208 23.4721 16.3547 21.6587 14.0686 21.6587C11.7825 21.6587 9.9292 23.4721 9.9292 25.7091C9.9292 27.946 11.7825 29.7595 14.0686 29.7595Z" fill="black"/>
<path opacity="0.2" d="M15.4016 64.626C17.6877 64.626 19.541 62.8126 19.541 60.5757C19.541 58.3387 17.6877 56.5253 15.4016 56.5253C13.1155 56.5253 11.2622 58.3387 11.2622 60.5757C11.2622 62.8126 13.1155 64.626 15.4016 64.626Z" fill="black"/>
<path opacity="0.2" d="M30.5021 32.5125C29.6243 37.3583 31.5621 41.746 31.5621 41.746C31.5621 41.746 34.923 38.2772 35.8007 33.4315C36.6785 28.5857 34.7408 24.1979 34.7408 24.1979C34.7408 24.1979 31.3799 27.6667 30.5021 32.5125Z" fill="black"/>
<path opacity="0.2" d="M16.7454 44.0154C21.469 45.7055 26.2155 44.6209 26.2155 44.6209C26.2155 44.6209 23.3036 40.7961 18.58 39.106C13.8564 37.4159 9.10986 38.5005 9.10986 38.5005C9.10986 38.5005 12.0218 42.3253 16.7454 44.0154Z" fill="black"/>
<path opacity="0.2" d="M15.9443 74.891C19.2552 76.0756 22.5868 75.3028 22.5868 75.3028C22.5868 75.3028 20.5505 72.6094 17.2397 71.4248C13.9288 70.2401 10.5972 71.0129 10.5972 71.0129C10.5972 71.0129 12.6335 73.7063 15.9443 74.891Z" fill="black"/>
<path d="M46.4045 55.5758C56.4164 55.5758 64.5326 47.6341 64.5326 37.8375C64.5326 28.0409 56.4164 20.0992 46.4045 20.0992C36.3926 20.0992 28.2764 28.0409 28.2764 37.8375C28.2764 47.6341 36.3926 55.5758 46.4045 55.5758Z" fill="#D0CDE1"/>
<path d="M39.3232 51.4185C39.3232 51.4185 41.5893 61.9506 41.5893 63.0592C41.5893 64.1678 52.3528 69.1567 52.3528 69.1567L61.9834 67.4938L65.3825 57.516C65.3825 57.516 59.7174 49.2012 59.7174 45.8752L39.3232 51.4185Z" fill="#D0CDE1"/>
<path d="M89.2555 63.4173L89.1014 63.7646C84.9082 73.0987 77.6374 80.7874 68.4516 85.6011C59.2658 90.4148 48.6956 92.0754 38.4315 90.3174C38.1522 90.269 37.8734 90.2187 37.5951 90.1667C34.7188 89.6211 31.9023 88.8084 29.1838 87.7396C28.7422 87.5659 28.3038 87.386 27.8686 87.1998C27.5714 87.0732 27.2743 86.9426 26.9799 86.808C24.3113 85.5983 21.7662 84.1433 19.3789 82.4626L17.23 76.3632L18.4379 75.4613L20.9225 73.605L23.5735 71.6248L24.2628 71.1092L34.6647 63.3392L35.4324 62.7657L40.8391 58.7273L40.8404 58.7259C40.8404 58.7259 46.6873 68.048 55.1853 65.2763C63.6832 62.5046 63.4975 54.5569 63.4975 54.5569L89.2555 63.4173Z" fill="#2F2E41"/>
<path d="M30.6839 23.5464C30.6839 23.5464 36.4395 11.3441 47.4711 14.16C58.5027 16.976 64.7379 21.1998 65.2176 25.4237C65.6972 29.6476 64.9778 35.9834 64.9778 35.9834C64.9778 35.9834 63.7787 27.301 56.1045 29.1783C48.4304 31.0556 36.4395 29.6476 36.4395 29.6476L34.521 46.5431C34.521 46.5431 32.3626 43.4926 29.9644 45.3698C27.5663 47.2471 23.0097 27.301 30.6839 23.5464Z" fill="#2F2E41"/>
<path d="M29.1837 87.7396C28.7421 87.566 28.3037 87.386 27.8685 87.1998C27.5714 87.0733 27.2742 86.9427 26.9798 86.8081C22.5663 84.8055 18.5004 82.1393 14.9297 78.9062C16.194 77.2208 17.2299 76.3633 17.2299 76.3633H25.7279L27.0018 80.5552L29.1837 87.7396Z" fill="#2F2E41"/>
<path d="M81.8111 62.5046L89.1012 63.7646C87.1503 68.1134 84.5155 72.1364 81.2925 75.6875L81.8111 62.5046Z" fill="#2F2E41"/>
</g>
<defs>
<clipPath id="clip0_414_251">
<rect width="93" height="91" fill="white"/>
</clipPath>
</defs>
</svg>
