<svg width="263" height="312" viewBox="0 0 263 312" fill="none" xmlns="http://www.w3.org/2000/svg">
<g clip-path="url(#clip0_417_430)">
<path d="M101.862 256.078C96.629 250.705 89.0455 247.624 81.056 247.624L80.7478 247.625C75.4854 247.627 70.3168 246.237 65.7708 243.599L65.2977 243.324L65.6787 242.933C67.7415 240.809 69.4638 238.381 70.7855 235.736C69.8468 236.607 68.7272 237.262 67.506 237.655C66.2848 238.048 64.9918 238.169 63.7185 238.009C62.3742 237.849 61.0837 237.389 59.9437 236.662C58.8037 235.935 57.8438 234.96 57.1361 233.812C54.3437 229.301 51.0151 222.902 51.0151 218.027C51.0195 213.906 51.8862 209.831 53.5602 206.062C55.2341 202.293 57.6785 198.913 60.7375 196.137C62.6741 194.398 64.2209 192.273 65.2772 189.9C66.3334 187.527 66.8754 184.958 66.8676 182.363L66.8661 181.993C66.8656 178.576 67.2851 175.171 68.1153 171.855L68.1996 171.52L68.5457 171.532C70.7776 171.608 73.0106 171.421 75.1988 170.977C73.1463 170.727 71.1385 170.195 69.2321 169.397L68.8598 169.247L68.9862 168.868C77.6965 163.499 97.3583 166.279 108.771 140.287C118.024 119.211 150.675 158.996 150.675 181.993C150.675 184.34 148.342 187.441 150.088 188.992C168.967 205.758 155.941 216.524 151.834 227.357C150.86 229.927 152.972 232.749 152.972 235.53C152.972 236.001 152.96 236.488 152.937 236.977L152.9 237.729L152.271 237.312C151.025 236.5 149.871 235.557 148.828 234.5C149.91 236.98 150.42 239.671 150.321 242.373C150.221 245.075 149.514 247.721 148.251 250.115C146.273 253.832 144.359 256.494 142.562 258.024C136.808 262.926 129.39 265.455 121.824 265.093C114.259 264.731 107.118 261.506 101.862 256.078H101.862Z" fill="#E6E6E6"/>
<path d="M133.469 312C133.597 312 133.722 311.954 133.819 311.87C133.916 311.786 133.979 311.669 133.997 311.543C134.02 311.384 136.245 295.408 134.247 274.177C132.401 254.568 126.474 226.326 108.72 203.131C108.677 203.075 108.624 203.028 108.563 202.993C108.503 202.958 108.436 202.935 108.366 202.925C108.296 202.916 108.225 202.92 108.157 202.938C108.09 202.956 108.026 202.987 107.97 203.029C107.914 203.072 107.867 203.125 107.832 203.185C107.796 203.246 107.773 203.312 107.764 203.382C107.755 203.451 107.759 203.522 107.777 203.589C107.795 203.657 107.826 203.72 107.869 203.776C125.47 226.771 131.349 254.806 133.182 274.276C135.169 295.384 132.961 311.235 132.939 311.393C132.928 311.468 132.934 311.545 132.955 311.618C132.977 311.691 133.014 311.759 133.065 311.817C133.115 311.874 133.177 311.92 133.247 311.952C133.316 311.984 133.392 312 133.469 312V312Z" fill="#3F3D56"/>
<path d="M118.98 235.849C119.093 235.849 119.203 235.813 119.295 235.747C119.386 235.681 119.454 235.588 119.489 235.481C119.524 235.374 119.524 235.259 119.489 235.152C119.454 235.045 119.386 234.952 119.295 234.886C114.236 231.477 108.771 228.707 103.025 226.641C94.0489 223.37 80.3991 220.404 66.3468 224.856C66.2798 224.877 66.2176 224.911 66.1637 224.956C66.1099 225.001 66.0655 225.056 66.0332 225.119C66.0008 225.181 65.9811 225.249 65.9751 225.318C65.9691 225.388 65.977 225.458 65.9983 225.525C66.0196 225.592 66.054 225.654 66.0993 225.707C66.1447 225.76 66.2003 225.805 66.2627 225.837C66.3252 225.869 66.3935 225.888 66.4635 225.894C66.5336 225.9 66.6042 225.892 66.6711 225.87C80.4355 221.51 93.8379 224.426 102.658 227.641C108.311 229.672 113.688 232.395 118.666 235.747C118.757 235.813 118.867 235.849 118.98 235.849V235.849Z" fill="#3F3D56"/>
<path d="M143.453 175.172C143.461 175.06 143.434 174.948 143.374 174.853C143.315 174.757 143.226 174.683 143.122 174.64C143.017 174.598 142.902 174.59 142.792 174.617C142.682 174.643 142.584 174.704 142.511 174.79C138.731 179.568 135.563 184.795 133.079 190.35C129.155 199.027 125.2 212.366 128.649 226.639C128.665 226.707 128.695 226.771 128.736 226.828C128.777 226.884 128.829 226.932 128.889 226.969C128.949 227.006 129.016 227.03 129.085 227.041C129.155 227.052 129.226 227.049 129.294 227.033C129.362 227.016 129.427 226.987 129.483 226.946C129.54 226.904 129.588 226.853 129.625 226.793C129.662 226.733 129.686 226.667 129.697 226.598C129.708 226.529 129.705 226.458 129.689 226.39C126.311 212.41 130.198 199.313 134.054 190.787C136.496 185.321 139.611 180.178 143.329 175.476C143.402 175.391 143.445 175.284 143.453 175.172V175.172Z" fill="#3F3D56"/>
<path d="M246.591 311.436H204.025L203.842 311.106C203.297 310.123 202.772 309.082 202.281 308.012C197.896 298.668 196.043 287.981 194.408 278.552L193.176 271.444C193.027 270.583 193.14 269.698 193.499 268.901C193.858 268.104 194.448 267.432 195.194 266.971C195.939 266.51 196.805 266.281 197.682 266.313C198.559 266.345 199.407 266.637 200.116 267.151C206.585 271.837 213.056 276.518 219.53 281.195C221.982 282.971 224.781 285.026 227.462 287.246C227.721 285.996 227.992 284.741 228.262 283.504C228.449 282.65 228.887 281.871 229.521 281.266C230.155 280.662 230.956 280.259 231.821 280.11C232.686 279.962 233.576 280.073 234.378 280.431C235.179 280.788 235.854 281.376 236.318 282.118L241.299 290.083C244.931 295.9 248.137 301.632 247.484 307.814C247.487 307.889 247.481 307.965 247.467 308.039C247.336 309.054 247.094 310.052 246.744 311.015L246.591 311.436Z" fill="#F0F0F0"/>
<path d="M226.76 144.849L218.544 114.58C218.193 113.299 217.349 112.207 216.195 111.539C215.041 110.872 213.67 110.683 212.378 111.013V111.013C211.709 111.183 211.082 111.488 210.536 111.908C209.989 112.327 209.534 112.853 209.198 113.454C208.863 114.054 208.653 114.717 208.583 115.4C208.513 116.084 208.583 116.775 208.79 117.43L218.292 148.611L223.263 167.801C222.539 168.351 222.003 169.11 221.727 169.974C221.451 170.838 221.45 171.766 221.722 172.632C221.995 173.497 222.528 174.258 223.25 174.811C223.972 175.364 224.847 175.682 225.758 175.722C226.668 175.763 227.568 175.523 228.337 175.037C229.105 174.55 229.705 173.839 230.054 173.002C230.402 172.164 230.484 171.24 230.286 170.354C230.089 169.469 229.623 168.666 228.951 168.053L226.76 144.849Z" fill="#A0616A"/>
<path d="M157.631 138.33L182.592 119.208C183.647 118.394 184.339 117.201 184.517 115.884C184.696 114.568 184.348 113.234 183.548 112.171V112.171C183.134 111.621 182.612 111.161 182.013 110.819C181.415 110.476 180.752 110.259 180.067 110.179C179.381 110.1 178.686 110.16 178.025 110.357C177.363 110.553 176.749 110.882 176.219 111.323L150.903 131.978L134.988 143.883C134.201 143.427 133.292 143.224 132.384 143.3C131.476 143.377 130.614 143.73 129.915 144.311C129.216 144.892 128.713 145.674 128.476 146.549C128.238 147.425 128.277 148.352 128.587 149.204C128.898 150.057 129.464 150.794 130.209 151.315C130.955 151.836 131.844 152.116 132.755 152.117C133.666 152.118 134.555 151.839 135.301 151.32C136.048 150.8 136.615 150.064 136.927 149.212L157.631 138.33Z" fill="#A0616A"/>
<path d="M177.975 142.726L176.875 167.187L211.421 159.713C208.481 149.884 206.481 148.207 208.691 141.367L177.975 142.726Z" fill="#A0616A"/>
<path d="M199.217 97.882H187.706L182.763 106.303L180.408 106.173C179.255 106.11 178.103 106.281 177.019 106.676C175.936 107.072 174.945 107.683 174.107 108.472C173.269 109.262 172.601 110.213 172.145 111.268C171.689 112.323 171.454 113.459 171.454 114.608V114.608L174.356 119.086C174.356 119.086 169.165 128.09 176.642 132.52C176.642 132.52 175.309 140.867 176.642 140.777C177.976 140.687 181.047 138.989 177.976 140.687C174.904 142.386 175.133 142.614 175.531 143.01L175.928 143.405L208.226 148.804C208.226 148.804 209.17 142.571 209.272 141.459C209.374 140.348 208.691 143.066 209.374 140.348C210.056 137.63 211.08 138.649 210.056 137.63C209.033 136.611 216.69 123.984 213.544 119.086L218.589 114.188C218.589 109.49 211.008 105.681 206.289 105.681H205.684L199.217 97.882Z" fill="#E6E6E6"/>
<path d="M171.483 302.006H166.823L164.607 284.117L171.483 284.118L171.483 302.006Z" fill="#A0616A"/>
<path d="M157.42 308.849C157.423 309.369 157.631 309.867 157.999 310.234C158.368 310.602 158.868 310.81 159.389 310.813H168.16L168.432 310.253L169.672 307.705L170.153 310.253L170.259 310.813H173.567L173.52 310.249L172.638 299.719L171.484 299.648L166.498 299.354L165.273 299.28V302.424C164.344 303.408 157.05 307.128 157.42 308.849Z" fill="#2F2E41"/>
<path d="M240.724 289.858L236.806 292.367L225.219 278.516L231.003 274.813L240.724 289.858Z" fill="#A0616A"/>
<path d="M232.617 303.187C232.901 303.622 233.347 303.929 233.857 304.04C234.367 304.15 234.9 304.056 235.341 303.778L242.717 299.054L242.641 298.437L242.299 295.625L244.088 297.51L244.482 297.924L247.264 296.142L246.918 295.693L240.453 287.312L239.444 287.874L235.091 290.312L234.02 290.909L235.729 293.554C235.482 294.882 231.37 301.939 232.617 303.187Z" fill="#2F2E41"/>
<path d="M262.458 311.763L118.192 311.903C118.048 311.903 117.911 311.845 117.809 311.743C117.707 311.642 117.65 311.504 117.65 311.361C117.65 311.218 117.707 311.08 117.809 310.979C117.911 310.877 118.048 310.82 118.192 310.819L262.458 310.679C262.602 310.68 262.74 310.737 262.842 310.839C262.943 310.94 263 311.078 263 311.221C263 311.364 262.943 311.502 262.842 311.604C262.74 311.705 262.602 311.763 262.458 311.763V311.763Z" fill="#CACACA"/>
<path d="M210.88 156.949C210.88 156.949 188.798 168.577 177.118 160.644C177.118 160.644 174.563 172.962 173.539 173.982C172.515 175.001 170.884 175.445 172.041 176.582C173.198 177.719 173.842 179.254 171.643 181.204C169.444 183.155 167.251 182.536 169.371 184.544C171.491 186.552 162.959 235.814 162.959 235.814C162.959 235.814 164.324 281.625 162.959 283.011C161.594 284.396 159.769 284.706 161.535 286.42C163.3 288.133 163.3 286.804 163.3 289.167V291.531L164.108 293.879H175.189C175.189 293.879 177.864 290.787 175.189 288.101C172.515 285.415 176.003 284.68 176.819 282.16C177.634 279.64 179 282.358 177.634 279.64C176.269 276.922 175.614 277.439 175.6 275.652C175.587 273.864 195.723 203.878 195.723 203.878L198.161 242.615L227.496 285.037L236.131 278.591C236.131 278.591 229.844 269.781 231.315 268.57C232.785 267.359 226.982 265.84 228.812 264.474C230.642 263.107 226.237 261.731 227.897 259.92C229.557 258.109 225.609 253.544 223.322 253.544C221.035 253.544 217.825 245.935 217.825 245.935L222.617 185.827L210.88 156.949Z" fill="#2F2E41"/>
<path d="M187.475 73.1567C187.319 73.3609 186.074 73.251 184.576 73.0333C181.616 72.603 181.213 73.1144 179 75.1183C175.794 78.021 177.617 95.726 176.041 99.5622L175.532 99.9356C176.542 99.7436 177.533 99.4675 178.496 99.1099C179.04 97.4015 179.585 95.6876 180.134 93.9806C180.653 95.3087 180.979 96.7036 181.102 98.1231C181.864 97.8241 182.622 97.0927 185.806 96.1119C187.409 95.0291 199.009 93.9404 200.501 93.464C204.285 80.6454 198.186 75.4615 187.475 73.1567Z" fill="#2F2E41"/>
<path d="M191.391 92.9234C197.513 92.9234 202.476 87.983 202.476 81.8887C202.476 75.7944 197.513 70.854 191.391 70.854C185.269 70.854 180.306 75.7944 180.306 81.8887C180.306 87.983 185.269 92.9234 191.391 92.9234Z" fill="#A0616A"/>
<path d="M198.37 72.1841C197.746 72.0924 197.144 71.8825 196.599 71.5659C196.328 71.4033 196.109 71.1683 195.967 70.8877C195.824 70.6071 195.763 70.2923 195.792 69.9791C195.929 69.195 196.819 68.7269 197.617 68.7746C198.411 68.8886 199.166 69.1927 199.817 69.6607C199.745 68.903 199.42 68.1912 198.893 67.6396C198.367 67.088 197.669 66.7287 196.912 66.6192C197.962 66.5629 199.053 66.5133 200.023 66.9151C200.994 67.3169 201.802 68.3118 201.627 69.3434C203.259 69.1342 204.868 70.2658 205.541 71.7597C206.215 73.2537 206.081 75.0081 205.543 76.5555C205.49 76.7925 205.387 77.0154 205.239 77.209C205.092 77.4026 204.905 77.5624 204.69 77.6777C204.141 77.8852 203.55 77.5373 203.075 77.1945C200.589 75.4032 198.328 73.3236 196.337 70.9997" fill="#2F2E41"/>
<path d="M203.203 93.6203C202.734 93.8406 202.978 94.6599 202.613 95.0268C202.455 95.1822 202.263 95.3006 202.053 95.3734C201.998 94.6895 201.838 94.0181 201.579 93.3825C201.531 93.267 201.453 93.1379 201.33 93.1481C201.186 93.1651 201.149 93.3519 201.146 93.4912C201.117 94.1822 200.963 94.8624 200.692 95.4991C200.688 95.5059 200.685 95.5161 200.681 95.5229C200.576 95.5195 200.466 95.5161 200.364 95.5127C199.572 95.4821 197.818 93.4573 197.429 94.1435C198.801 91.7212 200.473 88.0792 200.729 85.3104C200.818 84.7307 200.775 84.1386 200.603 83.5777C200.513 83.2987 200.345 83.0511 200.118 82.8645C199.891 82.6778 199.615 82.5598 199.323 82.5245C199.179 82.518 199.035 82.5433 198.902 82.5985C198.769 82.6537 198.649 82.7376 198.553 82.844C198.456 82.9505 198.384 83.077 198.342 83.2144C198.3 83.3518 198.289 83.4968 198.309 83.6389L198.112 83.6117C196.275 82.1237 197.859 79.5382 195.723 78.5157C194.999 78.1691 190.569 79.3276 189.788 79.1238C189.771 78.3042 189.603 77.4947 189.293 76.7354C189.245 76.6199 189.166 76.4908 189.044 76.501C188.9 76.518 188.863 76.7049 188.859 76.8441C188.83 77.5351 188.677 78.2153 188.405 78.852C187.323 78.6991 186.22 78.7568 185.16 79.0219C184.225 79.2665 183.337 79.6878 182.399 79.912C181.935 80.0535 181.447 80.0994 180.964 80.0468C180.482 79.9942 180.016 79.8443 179.593 79.6062C178.402 78.8112 178.194 77.0514 178.788 75.7536C179.218 74.9208 179.799 74.1744 180.501 73.5521C181.037 73.0357 181.593 72.5397 182.15 72.0437C182.648 71.5986 183.146 71.1535 183.644 70.7085C184.272 70.1208 184.94 69.5781 185.644 69.0846C186.769 68.3508 188.032 67.8535 189.357 67.6233C190.681 67.3931 192.039 67.4349 193.347 67.746C194.917 68.1197 197.016 67.5931 198.453 68.3235C199.204 68.7074 200.866 70.1785 201.524 70.7017C203.21 72.0369 202.069 70.9489 203.913 71.7209C208.31 73.5616 206.366 92.1383 203.203 93.6203Z" fill="#2F2E41"/>
<path d="M80.467 174.161C118.434 174.161 149.212 143.523 149.212 105.729C149.212 67.934 118.434 37.2956 80.467 37.2956C42.5003 37.2956 11.7222 67.934 11.7222 105.729C11.7222 143.523 42.5003 174.161 80.467 174.161Z" fill="white"/>
<path d="M80.4672 174.844C42.1828 174.844 11.0361 143.839 11.0361 105.728C11.0361 67.6178 42.1829 36.6124 80.4672 36.6124C118.752 36.6124 149.898 67.6178 149.898 105.728C149.898 143.839 118.752 174.844 80.4672 174.844ZM80.4672 37.9786C42.9396 37.9786 12.4085 68.3711 12.4085 105.728C12.4085 143.086 42.9396 173.478 80.4672 173.478C117.995 173.478 148.526 143.086 148.526 105.728C148.526 68.3711 117.995 37.9786 80.4672 37.9786Z" fill="#0EB34D"/>
<path d="M71.0888 141.345C69.9016 141.345 68.7308 141.069 67.6691 140.541C66.6074 140.012 65.6839 139.245 64.9718 138.299L46.2172 113.406C45.6147 112.606 45.1764 111.696 44.9272 110.728C44.678 109.76 44.6228 108.752 44.7649 107.762C44.9069 106.773 45.2434 105.821 45.755 104.96C46.2667 104.1 46.9435 103.349 47.7469 102.749C48.5503 102.149 49.4644 101.713 50.4372 101.465C51.41 101.217 52.4223 101.162 53.4164 101.303C54.4105 101.445 55.3669 101.78 56.2309 102.289C57.095 102.798 57.8498 103.472 58.4523 104.272L70.7222 120.556L102.236 73.5009C103.362 71.8224 105.111 70.6575 107.099 70.2624C109.087 69.8672 111.151 70.274 112.838 71.3935C114.525 72.5129 115.696 74.2534 116.094 76.2322C116.492 78.211 116.085 80.2662 114.961 81.946L77.4521 137.955C76.7736 138.968 75.861 139.804 74.7908 140.393C73.7207 140.983 72.5242 141.308 71.3016 141.342C71.2307 141.343 71.1597 141.345 71.0888 141.345Z" fill="#0EB34D"/>
<path d="M151.295 41.5712C151.486 40.2629 150.109 38.9804 148.22 38.7068C146.331 38.4331 144.644 39.2719 144.453 40.5803C144.261 41.8886 145.638 43.1711 147.527 43.4447C149.417 43.7184 151.103 42.8796 151.295 41.5712Z" fill="#E6E6E6"/>
<path d="M173.789 39.3863C173.98 38.078 172.603 36.7956 170.714 36.5219C168.825 36.2483 167.138 37.0871 166.947 38.3954C166.756 39.7037 168.132 40.9862 170.021 41.2598C171.911 41.5335 173.597 40.6947 173.789 39.3863Z" fill="#3F3D56"/>
<path d="M145.134 23.443C145.326 22.1346 143.949 20.8522 142.06 20.5786C140.17 20.3049 138.484 21.1437 138.293 22.452C138.101 23.7604 139.478 25.0428 141.367 25.3165C143.257 25.5901 144.943 24.7513 145.134 23.443Z" fill="#FF6584"/>
<path d="M135.36 16.0173C135.369 14.8162 134.696 13.8373 133.857 13.831C133.018 13.8247 132.33 14.7933 132.321 15.9944C132.312 17.1955 132.985 18.1743 133.824 18.1806C134.663 18.1869 135.351 17.2184 135.36 16.0173Z" fill="#E6E6E6"/>
<path d="M132.046 2.18627C132.055 0.985156 131.382 0.00633676 130.543 1.84656e-05C129.703 -0.00629982 129.015 0.962275 129.006 2.16339C128.997 3.3645 129.67 4.34332 130.51 4.34964C131.349 4.35595 132.037 3.38738 132.046 2.18627Z" fill="#3F3D56"/>
<path d="M157.822 26.5279C157.831 25.3267 157.158 24.3479 156.318 24.3416C155.479 24.3353 154.791 25.3039 154.782 26.505C154.773 27.7061 155.446 28.6849 156.285 28.6912C157.125 28.6975 157.813 27.729 157.822 26.5279Z" fill="#E6E6E6"/>
<path d="M146.952 31.9306C146.961 30.7295 146.288 29.7507 145.448 29.7444C144.609 29.7381 143.921 30.7067 143.912 31.9078C143.903 33.1089 144.576 34.0877 145.415 34.094C146.255 34.1003 146.942 33.1318 146.952 31.9306Z" fill="#FF6584"/>
<path d="M162.083 41.9164C162.093 40.7153 161.42 39.7365 160.58 39.7301C159.741 39.7238 159.053 40.6924 159.044 41.8935C159.035 43.0946 159.708 44.0734 160.547 44.0797C161.387 44.0861 162.074 43.1175 162.083 41.9164Z" fill="#3F3D56"/>
<path d="M22.2887 203.691C22.4799 202.383 21.1033 201.1 19.214 200.827C17.3247 200.553 15.6381 201.392 15.4468 202.7C15.2556 204.008 16.6322 205.291 18.5215 205.564C20.4108 205.838 22.0974 204.999 22.2887 203.691Z" fill="#E6E6E6"/>
<path d="M44.7828 201.506C44.974 200.198 43.5974 198.915 41.7081 198.641C39.8188 198.368 38.1322 199.207 37.941 200.515C37.7497 201.823 39.1263 203.106 41.0156 203.379C42.9049 203.653 44.5915 202.814 44.7828 201.506Z" fill="#3F3D56"/>
<path d="M16.129 185.563C16.3202 184.254 14.9437 182.972 13.0543 182.698C11.165 182.424 9.47839 183.263 9.28717 184.572C9.09594 185.88 10.4725 187.162 12.3618 187.436C14.2512 187.71 15.9378 186.871 16.129 185.563Z" fill="#FF6584"/>
<path d="M6.35448 178.137C6.3636 176.936 5.69056 175.957 4.8512 175.951C4.01183 175.944 3.32398 176.913 3.31486 178.114C3.30574 179.315 3.97879 180.294 4.81816 180.3C5.65752 180.307 6.34535 179.338 6.35448 178.137Z" fill="#E6E6E6"/>
<path d="M3.03952 164.306C3.04865 163.105 2.3756 162.126 1.53624 162.12C0.696876 162.113 0.00904278 163.082 -8.11695e-05 164.283C-0.00920512 165.484 0.663836 166.463 1.5032 166.469C2.34256 166.476 3.0304 165.507 3.03952 164.306Z" fill="#3F3D56"/>
<path d="M28.8159 188.648C28.825 187.446 28.152 186.468 27.3126 186.461C26.4732 186.455 25.7854 187.424 25.7763 188.625C25.7672 189.826 26.4402 190.805 27.2796 190.811C28.1189 190.817 28.8068 189.849 28.8159 188.648Z" fill="#E6E6E6"/>
<path d="M17.9458 194.05C17.9549 192.849 17.2819 191.87 16.4425 191.864C15.6031 191.858 14.9153 192.826 14.9062 194.027C14.897 195.229 15.5701 196.207 16.4095 196.214C17.2488 196.22 17.9367 195.251 17.9458 194.05Z" fill="#FF6584"/>
<path d="M33.0771 204.036C33.0862 202.835 32.4132 201.856 31.5738 201.85C30.7345 201.843 30.0466 202.812 30.0375 204.013C30.0284 205.214 30.7014 206.193 31.5408 206.199C32.3801 206.206 33.068 205.237 33.0771 204.036Z" fill="#3F3D56"/>
</g>
<defs>
<clipPath id="clip0_417_430">
<rect width="263" height="312" fill="white"/>
</clipPath>
</defs>
</svg>
