<svg width="191" height="192" viewBox="0 0 191 192" fill="none" xmlns="http://www.w3.org/2000/svg">
<g clip-path="url(#clip0_417_585)">
<path d="M18.3677 161.743L16.6855 155.094C13.703 153.827 10.6515 152.73 7.54566 151.807L7.33333 154.898L6.47224 151.493C2.62044 150.39 0 149.904 0 149.904C0 149.904 3.5387 163.394 10.9633 173.707L19.6137 175.23L12.8935 176.201C13.8274 177.327 14.8311 178.394 15.8985 179.394C26.698 189.44 38.7268 194.05 42.7653 189.689C46.8038 185.328 41.3229 173.649 30.5234 163.603C27.1755 160.489 22.9698 157.989 18.7598 156.022L18.3677 161.743Z" fill="#F2F2F2"/>
<path d="M34.365 154.521L36.3544 147.958C34.4547 145.328 32.4086 142.808 30.2257 140.409L28.4502 142.945L29.4688 139.584C26.7401 136.645 24.7474 134.872 24.7474 134.872C24.7474 134.872 20.8202 148.253 21.8562 160.928L28.4759 166.713L22.2211 164.063C22.4399 165.511 22.7494 166.944 23.1478 168.353C27.2112 182.548 35.1309 192.726 40.837 191.085C46.543 189.444 47.8749 176.607 43.8116 162.412C42.552 158.011 40.2405 153.693 37.6514 149.828L34.365 154.521Z" fill="#F2F2F2"/>
<path d="M133.279 45.4849H132.229V16.675C132.229 14.4852 131.799 12.3169 130.963 10.2938C130.127 8.27067 128.901 6.43243 127.356 4.88401C125.811 3.33558 123.977 2.10731 121.959 1.26931C119.94 0.431311 117.776 0 115.592 0H54.6881C50.2755 0 46.0436 1.75683 42.9234 4.88401C39.8032 8.01118 38.0503 12.2525 38.0503 16.675V174.731C38.0503 176.921 38.4806 179.089 39.3168 181.112C40.1529 183.135 41.3784 184.974 42.9234 186.522C44.4684 188.07 46.3025 189.299 48.3211 190.137C50.3397 190.975 52.5032 191.406 54.6881 191.406H115.592C120.004 191.406 124.236 189.649 127.356 186.522C130.476 183.395 132.229 179.153 132.229 174.731V65.9924H133.278L133.279 45.4849Z" fill="#E6E6E6"/>
<path d="M116.263 4.33664H108.314C108.679 5.23501 108.819 6.20972 108.72 7.17488C108.621 8.14004 108.287 9.06603 107.747 9.87127C107.207 10.6765 106.478 11.3363 105.623 11.7925C104.769 12.2486 103.816 12.4872 102.848 12.4872H67.9567C66.9887 12.4871 66.0356 12.2485 65.1812 11.7923C64.3269 11.3361 63.5977 10.6763 63.0577 9.87106C62.5177 9.06583 62.1836 8.13987 62.0849 7.17475C61.9861 6.20963 62.1256 5.23497 62.4912 4.33664H55.0661C51.7708 4.33664 48.6104 5.64862 46.2803 7.98397C43.9502 10.3193 42.6411 13.4867 42.6411 16.7894V174.616C42.6411 177.919 43.9502 181.086 46.2803 183.421C48.6104 185.757 51.7708 187.069 55.0661 187.069H116.263C119.558 187.069 122.719 185.757 125.049 183.421C127.379 181.086 128.688 177.919 128.688 174.616V174.616V16.7891C128.688 13.4865 127.379 10.3192 125.049 7.98387C122.718 5.64859 119.558 4.33664 116.263 4.33664V4.33664Z" fill="white"/>
<path d="M77.8664 67.2067C77.8662 66.1035 78.1559 65.0197 78.7065 64.0644C79.257 63.1091 80.0489 62.316 81.0025 61.7649C80.0494 61.2132 78.9682 60.9227 77.8675 60.9226C76.7669 60.9225 75.6856 61.2128 74.7324 61.7642C73.7792 62.3157 72.9876 63.109 72.4373 64.0642C71.8869 65.0195 71.5972 66.1032 71.5972 67.2063C71.5972 68.3094 71.8869 69.3931 72.4373 70.3483C72.9876 71.3036 73.7792 72.0969 74.7324 72.6484C75.6856 73.1998 76.7669 73.4901 77.8675 73.49C78.9682 73.4899 80.0494 73.1994 81.0025 72.6477C80.049 72.0967 79.2571 71.3037 78.7065 70.3486C78.156 69.3934 77.8662 68.3098 77.8664 67.2067V67.2067Z" fill="#CCCCCC"/>
<path d="M85.7482 67.2067C85.748 66.1035 86.0377 65.0197 86.5883 64.0644C87.1388 63.1091 87.9307 62.316 88.8843 61.7649C87.9312 61.2132 86.85 60.9227 85.7494 60.9226C84.6487 60.9225 83.5675 61.2128 82.6143 61.7642C81.661 62.3157 80.8694 63.109 80.3191 64.0642C79.7687 65.0195 79.479 66.1032 79.479 67.2063C79.479 68.3094 79.7687 69.3931 80.3191 70.3483C80.8694 71.3036 81.661 72.0969 82.6143 72.6484C83.5675 73.1998 84.6487 73.4901 85.7494 73.49C86.85 73.4899 87.9312 73.1994 88.8843 72.6477C87.9308 72.0967 87.1389 71.3037 86.5884 70.3486C86.0378 69.3934 85.7481 68.3098 85.7482 67.2067V67.2067Z" fill="#CCCCCC"/>
<path d="M93.4513 73.4901C96.914 73.4901 99.721 70.6768 99.721 67.2064C99.721 63.7361 96.914 60.9228 93.4513 60.9228C89.9887 60.9228 87.1816 63.7361 87.1816 67.2064C87.1816 70.6768 89.9887 73.4901 93.4513 73.4901Z" fill="#0EB34D"/>
<path d="M103.929 86.8329H67.3883C67.0404 86.8325 66.7069 86.6938 66.4609 86.4472C66.215 86.2007 66.0766 85.8665 66.0762 85.5178V48.8951C66.0766 48.5464 66.215 48.2122 66.4609 47.9656C66.7069 47.7191 67.0404 47.5804 67.3883 47.58H103.929C104.277 47.5804 104.611 47.7191 104.857 47.9656C105.103 48.2122 105.241 48.5464 105.241 48.8951V85.5178C105.241 85.8665 105.103 86.2007 104.857 86.4472C104.611 86.6938 104.277 86.8325 103.929 86.8329V86.8329ZM67.3883 48.1063C67.1796 48.1065 66.9795 48.1897 66.8319 48.3376C66.6843 48.4856 66.6013 48.6861 66.6011 48.8953V85.5181C66.6013 85.7272 66.6843 85.9278 66.8319 86.0757C66.9795 86.2237 67.1796 86.3068 67.3883 86.307H103.929C104.138 86.3068 104.338 86.2237 104.486 86.0757C104.633 85.9278 104.716 85.7272 104.717 85.5181V48.8953C104.716 48.6861 104.633 48.4856 104.486 48.3376C104.338 48.1897 104.138 48.1065 103.929 48.1063H67.3883Z" fill="#CCCCCC"/>
<path d="M112.088 114.906H56.0454V115.432H112.088V114.906Z" fill="#CCCCCC"/>
<path d="M57.8153 111.621C58.7927 111.621 59.5851 110.827 59.5851 109.848C59.5851 108.868 58.7927 108.074 57.8153 108.074C56.8378 108.074 56.0454 108.868 56.0454 109.848C56.0454 110.827 56.8378 111.621 57.8153 111.621Z" fill="#0EB34D"/>
<path d="M112.088 132.643H56.0454V133.169H112.088V132.643Z" fill="#CCCCCC"/>
<path d="M57.8153 129.359C58.7927 129.359 59.5851 128.565 59.5851 127.585C59.5851 126.605 58.7927 125.811 57.8153 125.811C56.8378 125.811 56.0454 126.605 56.0454 127.585C56.0454 128.565 56.8378 129.359 57.8153 129.359Z" fill="#0EB34D"/>
<path d="M111.063 152.842H93.3517C93.0457 152.841 92.7524 152.719 92.5361 152.502C92.3198 152.286 92.1981 151.992 92.1978 151.685V145.464C92.1981 145.157 92.3198 144.863 92.5361 144.646C92.7524 144.429 93.0457 144.307 93.3517 144.307H111.063C111.369 144.307 111.662 144.429 111.878 144.646C112.095 144.863 112.216 145.157 112.217 145.464V151.685C112.216 151.992 112.095 152.286 111.878 152.502C111.662 152.719 111.369 152.841 111.063 152.842V152.842Z" fill="#0EB34D"/>
<path d="M63.5887 111.621C64.5662 111.621 65.3586 110.827 65.3586 109.848C65.3586 108.868 64.5662 108.074 63.5887 108.074C62.6112 108.074 61.8188 108.868 61.8188 109.848C61.8188 110.827 62.6112 111.621 63.5887 111.621Z" fill="#0EB34D"/>
<path d="M69.3617 111.621C70.3391 111.621 71.1315 110.827 71.1315 109.848C71.1315 108.868 70.3391 108.074 69.3617 108.074C68.3842 108.074 67.5918 108.868 67.5918 109.848C67.5918 110.827 68.3842 111.621 69.3617 111.621Z" fill="#0EB34D"/>
<path d="M63.5887 129.359C64.5662 129.359 65.3586 128.565 65.3586 127.585C65.3586 126.605 64.5662 125.811 63.5887 125.811C62.6112 125.811 61.8188 126.605 61.8188 127.585C61.8188 128.565 62.6112 129.359 63.5887 129.359Z" fill="#0EB34D"/>
<path d="M69.3617 129.359C70.3391 129.359 71.1315 128.565 71.1315 127.585C71.1315 126.605 70.3391 125.811 69.3617 125.811C68.3842 125.811 67.5918 126.605 67.5918 127.585C67.5918 128.565 68.3842 129.359 69.3617 129.359Z" fill="#0EB34D"/>
<path d="M190.287 192H6.17481C5.78068 192 5.46143 191.86 5.46143 191.687C5.46143 191.514 5.78068 191.374 6.17481 191.374H190.287C190.681 191.374 191 191.514 191 191.687C191 191.86 190.681 192 190.287 192Z" fill="#3F3D56"/>
<path d="M144.799 125.792C144.925 125.85 145.046 125.918 145.161 125.995L156.662 121.075L157.073 118.038L161.668 118.01L161.397 124.974L146.216 128.998C146.184 129.104 146.146 129.207 146.101 129.309C145.882 129.778 145.529 130.172 145.087 130.441C144.645 130.71 144.133 130.842 143.616 130.82C143.1 130.799 142.601 130.625 142.182 130.32C141.764 130.016 141.445 129.594 141.265 129.108C141.085 128.622 141.052 128.093 141.171 127.589C141.289 127.084 141.554 126.626 141.932 126.272C142.309 125.918 142.783 125.683 143.293 125.598C143.803 125.513 144.327 125.58 144.799 125.792V125.792Z" fill="#FFB8B8"/>
<path d="M163.339 188.902H160.196L158.7 176.748L163.34 176.749L163.339 188.902Z" fill="#FFB8B8"/>
<path d="M157.95 188.001H164.013V191.827H154.133C154.133 190.812 154.535 189.839 155.251 189.122C155.967 188.404 156.938 188.001 157.95 188.001Z" fill="#2F2E41"/>
<path d="M175.566 188.011L172.438 188.32L169.76 176.373L174.378 175.917L175.566 188.011Z" fill="#FFB8B8"/>
<path d="M170.115 187.645L176.149 187.049L176.523 190.857L166.69 191.827C166.641 191.327 166.691 190.823 166.836 190.342C166.982 189.861 167.22 189.414 167.538 189.025C167.856 188.637 168.248 188.315 168.69 188.078C169.132 187.841 169.616 187.694 170.115 187.645Z" fill="#2F2E41"/>
<path d="M164.215 105.148C167.693 105.148 170.513 102.322 170.513 98.8361C170.513 95.3499 167.693 92.5239 164.215 92.5239C160.736 92.5239 157.917 95.3499 157.917 98.8361C157.917 102.322 160.736 105.148 164.215 105.148Z" fill="#FFB8B8"/>
<path d="M159.493 186.444C159.223 186.445 158.961 186.35 158.754 186.176C158.547 186.002 158.408 185.76 158.361 185.494C156.734 176.441 151.415 146.839 151.288 146.019C151.285 146 151.284 145.981 151.284 145.962V143.755C151.283 143.675 151.309 143.596 151.355 143.531L152.058 142.545C152.091 142.497 152.135 142.458 152.186 142.43C152.237 142.402 152.293 142.387 152.351 142.384C156.357 142.196 169.477 141.644 170.11 142.438C170.747 143.235 170.522 145.652 170.47 146.128L170.473 146.178L176.367 183.956C176.413 184.257 176.339 184.565 176.161 184.812C175.983 185.059 175.714 185.225 175.414 185.276L171.733 185.884C171.459 185.928 171.178 185.872 170.942 185.726C170.705 185.58 170.529 185.354 170.444 185.089C169.306 181.442 165.488 169.176 164.165 164.429C164.156 164.399 164.138 164.373 164.112 164.356C164.086 164.339 164.054 164.332 164.023 164.336C163.993 164.341 163.964 164.356 163.944 164.38C163.924 164.404 163.913 164.434 163.913 164.465C163.979 168.99 164.139 180.534 164.194 184.521L164.2 184.95C164.203 185.241 164.096 185.522 163.902 185.738C163.708 185.954 163.44 186.088 163.151 186.116L159.601 186.439C159.565 186.442 159.529 186.444 159.493 186.444Z" fill="#2F2E41"/>
<path d="M160.218 107.63C159.119 108.285 158.461 109.489 158.084 110.713C157.385 112.98 156.964 115.324 156.831 117.693L156.432 124.786L151.495 143.591C155.774 147.22 158.243 146.395 164.003 143.427C169.764 140.459 170.422 144.417 170.422 144.417L171.574 128.416L173.22 110.932C172.851 110.486 172.433 110.083 171.974 109.731C170.452 108.545 168.682 107.721 166.797 107.32C164.912 106.92 162.96 106.954 161.09 107.419L160.218 107.63Z" fill="#0EB34D"/>
<path d="M158.614 129.59C158.747 129.64 158.876 129.701 158.999 129.771L170.371 124.066L170.56 120.976L175.251 120.652L175.502 127.697L160.305 132.734C160.181 133.267 159.897 133.75 159.493 134.118C159.088 134.487 158.581 134.723 158.04 134.795C157.498 134.868 156.947 134.773 156.46 134.524C155.973 134.275 155.574 133.883 155.314 133.401C155.055 132.919 154.948 132.369 155.009 131.825C155.069 131.28 155.293 130.767 155.651 130.353C156.009 129.94 156.484 129.645 157.014 129.509C157.543 129.373 158.101 129.401 158.614 129.59Z" fill="#FFB8B8"/>
<path d="M173.137 111.012C175.935 112.002 176.428 122.724 176.428 122.724C173.137 120.91 169.186 123.879 169.186 123.879C169.186 123.879 168.364 121.075 167.376 117.446C167.078 116.425 167.042 115.345 167.272 114.307C167.503 113.269 167.991 112.306 168.693 111.507C168.693 111.507 170.339 110.021 173.137 111.012Z" fill="#0EB34D"/>
<path d="M169.862 100.505C169.077 99.8761 168.007 101.02 168.007 101.02L167.379 95.3572C167.379 95.3572 163.455 95.8282 160.944 95.2C158.433 94.5717 158.041 97.4809 158.041 97.4809C157.911 96.3058 157.885 95.1215 157.962 93.9417C158.119 92.5261 160.159 91.1104 163.769 90.1666C167.379 89.2227 169.262 93.3125 169.262 93.3125C171.773 94.5707 170.647 101.135 169.862 100.505Z" fill="#2F2E41"/>
</g>
<defs>
<clipPath id="clip0_417_585">
<rect width="191" height="192" fill="white"/>
</clipPath>
</defs>
</svg>
