<svg width="303" height="228" viewBox="0 0 303 228" fill="none" xmlns="http://www.w3.org/2000/svg">
<circle cx="208.745" cy="94.1329" r="94.108" transform="rotate(-157.801 208.745 94.1329)" fill="#FA8214" fill-opacity="0.46"/>
<circle cx="94.1329" cy="133.867" r="94.108" transform="rotate(-157.801 94.1329 133.867)" fill="#FA8214" fill-opacity="0.46"/>
<g clip-path="url(#clip0_471_124)">
<path d="M116.55 115.288C115.964 114.702 115.964 113.751 116.55 113.165L126.107 103.608C126.694 103.021 127.644 103.021 128.231 103.608C128.817 104.194 128.817 105.145 128.231 105.732L119.736 114.227L128.231 122.722C128.817 123.308 128.817 124.259 128.231 124.845C127.644 125.432 126.694 125.432 126.107 124.845L116.55 115.288ZM146.645 115.728L117.612 115.728L117.612 112.725L146.645 112.725L146.645 115.728Z" fill="white"/>
</g>
<defs>
<clipPath id="clip0_471_124">
<rect width="97" height="24" fill="white" transform="matrix(-1.00115 -2.25457e-08 -2.25457e-08 1.00115 169.672 102.213)"/>
</clipPath>
</defs>
</svg>
