<svg width="251" height="18" viewBox="0 0 251 18" fill="none" xmlns="http://www.w3.org/2000/svg">
<path d="M0 17.7064V0.238815H11.5655V3.2837H3.6931V7.4459H10.7978V10.4908H3.6931V17.7064H0Z" fill="#0E5702"/>
<path d="M14.4707 17.7064H10.5132L16.5433 0.238815H21.3025L27.3241 17.7064H23.3666L18.9911 4.23043H18.8547L14.4707 17.7064ZM14.2234 10.8405H23.5713V13.7233H14.2234V10.8405Z" fill="#0E5702"/>
<path d="M43.6093 6.35418H39.8736C39.8054 5.87086 39.666 5.44157 39.4557 5.06629C39.2453 4.68532 38.9752 4.36121 38.6454 4.09397C38.3156 3.82672 37.9346 3.62202 37.5025 3.47987C37.076 3.33772 36.6126 3.26665 36.1123 3.26665C35.2082 3.26665 34.4207 3.49125 33.7497 3.94044C33.0787 4.38396 32.5585 5.03217 32.1889 5.88508C31.8193 6.7323 31.6345 7.76148 31.6345 8.97261C31.6345 10.2179 31.8193 11.2641 32.1889 12.1113C32.5642 12.9585 33.0873 13.5982 33.7582 14.0304C34.4292 14.4625 35.2053 14.6786 36.0867 14.6786C36.5814 14.6786 37.0391 14.6132 37.4599 14.4824C37.8863 14.3516 38.2644 14.1611 38.5942 13.911C38.924 13.6551 39.1969 13.3452 39.413 12.9813C39.6348 12.6174 39.7883 12.2023 39.8736 11.736L43.6093 11.7531C43.5127 12.5548 43.271 13.3281 42.8844 14.073C42.5034 14.8122 41.9888 15.4746 41.3406 16.0603C40.6981 16.6403 39.9304 17.1008 39.0377 17.442C38.1507 17.7775 37.1471 17.9452 36.027 17.9452C34.469 17.9452 33.0759 17.5927 31.8477 16.8876C30.6252 16.1825 29.6586 15.1619 28.9478 13.8257C28.2427 12.4894 27.8902 10.8718 27.8902 8.97261C27.8902 7.06778 28.2484 5.44725 28.9649 4.11103C29.6813 2.7748 30.6536 1.75699 31.8818 1.05761C33.11 0.352536 34.4917 0 36.027 0C37.0391 0 37.9773 0.142152 38.8416 0.426455C39.7115 0.710758 40.482 1.12584 41.153 1.6717C41.8239 2.21188 42.3698 2.87431 42.7905 3.65898C43.217 4.44366 43.4899 5.34206 43.6093 6.35418Z" fill="#0E5702"/>
<path d="M49.5424 0.238815V17.7064H45.8493V0.238815H49.5424Z" fill="#0E5702"/>
<path d="M52.1726 17.7064V0.238815H55.8657V14.6615H63.3542V17.7064H52.1726Z" fill="#0E5702"/>
<path d="M69.0848 0.238815V17.7064H65.3917V0.238815H69.0848Z" fill="#0E5702"/>
<path d="M71.0497 3.2837V0.238815H85.3956V3.2837H80.0479V17.7064H76.3974V3.2837H71.0497Z" fill="#0E5702"/>
<path d="M86.3264 0.238815H90.463L94.4461 7.76148H94.6167L98.5998 0.238815H102.736L96.3651 11.5313V17.7064H92.6976V11.5313L86.3264 0.238815Z" fill="#0E5702"/>
<path d="M124.908 6.35418H121.172C121.104 5.87086 120.965 5.44157 120.754 5.06629C120.544 4.68532 120.274 4.36121 119.944 4.09397C119.614 3.82672 119.233 3.62202 118.801 3.47987C118.375 3.33772 117.911 3.26665 117.411 3.26665C116.507 3.26665 115.719 3.49125 115.048 3.94044C114.377 4.38396 113.857 5.03217 113.487 5.88508C113.118 6.7323 112.933 7.76148 112.933 8.97261C112.933 10.2179 113.118 11.2641 113.487 12.1113C113.863 12.9585 114.386 13.5982 115.057 14.0304C115.728 14.4625 116.504 14.6786 117.385 14.6786C117.88 14.6786 118.338 14.6132 118.758 14.4824C119.185 14.3516 119.563 14.1611 119.893 13.911C120.222 13.6551 120.495 13.3452 120.712 12.9813C120.933 12.6174 121.087 12.2023 121.172 11.736L124.908 11.7531C124.811 12.5548 124.569 13.3281 124.183 14.073C123.802 14.8122 123.287 15.4746 122.639 16.0603C121.997 16.6403 121.229 17.1008 120.336 17.442C119.449 17.7775 118.446 17.9452 117.325 17.9452C115.767 17.9452 114.374 17.5927 113.146 16.8876C111.924 16.1825 110.957 15.1619 110.246 13.8257C109.541 12.4894 109.189 10.8718 109.189 8.97261C109.189 7.06778 109.547 5.44725 110.263 4.11103C110.98 2.7748 111.952 1.75699 113.18 1.05761C114.408 0.352536 115.79 0 117.325 0C118.338 0 119.276 0.142152 120.14 0.426455C121.01 0.710758 121.78 1.12584 122.451 1.6717C123.122 2.21188 123.668 2.87431 124.089 3.65898C124.515 4.44366 124.788 5.34206 124.908 6.35418Z" fill="#0E5702"/>
<path d="M129.83 17.7064H125.873L131.903 0.238815H136.662L142.684 17.7064H138.726L134.351 4.23043H134.214L129.83 17.7064ZM129.583 10.8405H138.931V13.7233H129.583V10.8405Z" fill="#0E5702"/>
<path d="M141.578 3.2837V0.238815H155.924V3.2837H150.576V17.7064H146.926V3.2837H141.578Z" fill="#0E5702"/>
<path d="M158.755 17.7064H154.797L160.827 0.238815H165.586L171.608 17.7064H167.65L163.275 4.23043H163.139L158.755 17.7064ZM158.507 10.8405H167.855V13.7233H158.507V10.8405Z" fill="#0E5702"/>
<path d="M173.302 17.7064V0.238815H176.995V14.6615H184.484V17.7064H173.302Z" fill="#0E5702"/>
<path d="M201.893 8.97261C201.893 10.8774 201.532 12.498 200.809 13.8342C200.093 15.1704 199.115 16.1911 197.875 16.8961C196.642 17.5955 195.254 17.9452 193.713 17.9452C192.161 17.9452 190.768 17.5927 189.534 16.8876C188.3 16.1825 187.325 15.1619 186.608 13.8257C185.892 12.4894 185.534 10.8718 185.534 8.97261C185.534 7.06778 185.892 5.44725 186.608 4.11103C187.325 2.7748 188.3 1.75699 189.534 1.05761C190.768 0.352536 192.161 0 193.713 0C195.254 0 196.642 0.352536 197.875 1.05761C199.115 1.75699 200.093 2.7748 200.809 4.11103C201.532 5.44725 201.893 7.06778 201.893 8.97261ZM198.148 8.97261C198.148 7.73874 197.964 6.69819 197.594 5.85096C197.23 5.00374 196.715 4.36121 196.05 3.92339C195.385 3.48556 194.606 3.26665 193.713 3.26665C192.821 3.26665 192.042 3.48556 191.376 3.92339C190.711 4.36121 190.194 5.00374 189.824 5.85096C189.46 6.69819 189.278 7.73874 189.278 8.97261C189.278 10.2065 189.46 11.247 189.824 12.0943C190.194 12.9415 190.711 13.584 191.376 14.0218C192.042 14.4597 192.821 14.6786 193.713 14.6786C194.606 14.6786 195.385 14.4597 196.05 14.0218C196.715 13.584 197.23 12.9415 197.594 12.0943C197.964 11.247 198.148 10.2065 198.148 8.97261Z" fill="#0E5702"/>
<path d="M215.803 5.88508C215.683 5.47 215.515 5.10324 215.299 4.78482C215.083 4.46072 214.819 4.18779 214.506 3.96603C214.199 3.73859 213.847 3.56516 213.449 3.44576C213.056 3.32635 212.621 3.26665 212.144 3.26665C211.251 3.26665 210.466 3.4884 209.79 3.93191C209.119 4.37543 208.595 5.0208 208.22 5.86802C207.845 6.70956 207.657 7.73874 207.657 8.95555C207.657 10.1724 207.842 11.2072 208.212 12.0601C208.581 12.9131 209.104 13.5641 209.781 14.0133C210.458 14.4568 211.257 14.6786 212.178 14.6786C213.014 14.6786 213.727 14.5307 214.319 14.2351C214.916 13.9337 215.37 13.5101 215.683 12.9642C216.002 12.4184 216.161 11.773 216.161 11.0281L216.911 11.139H212.408V8.35852H219.717V10.559C219.717 12.0943 219.393 13.4134 218.745 14.5165C218.097 15.6139 217.204 16.4612 216.067 17.0582C214.93 17.6495 213.628 17.9452 212.161 17.9452C210.523 17.9452 209.084 17.5842 207.845 16.862C206.605 16.1342 205.639 15.1022 204.945 13.766C204.257 12.4241 203.913 10.832 203.913 8.98967C203.913 7.57384 204.118 6.31153 204.527 5.20275C204.942 4.08828 205.522 3.14439 206.267 2.37109C207.012 1.59778 207.879 1.00928 208.868 0.605566C209.858 0.201855 210.93 0 212.084 0C213.073 0 213.994 0.144995 214.847 0.434984C215.7 0.719288 216.456 1.123 217.116 1.64612C217.781 2.16923 218.324 2.79186 218.745 3.51399C219.166 4.23043 219.436 5.0208 219.555 5.88508H215.803Z" fill="#0E5702"/>
<path d="M232.873 0.238815H236.566V11.5825C236.566 12.8562 236.261 13.9707 235.653 14.9259C235.05 15.8812 234.206 16.6261 233.12 17.1605C232.034 17.6894 230.769 17.9538 229.324 17.9538C227.874 17.9538 226.606 17.6894 225.52 17.1605C224.434 16.6261 223.59 15.8812 222.987 14.9259C222.385 13.9707 222.083 12.8562 222.083 11.5825V0.238815H225.776V11.2669C225.776 11.9322 225.921 12.5236 226.211 13.041C226.507 13.5584 226.922 13.965 227.457 14.2607C227.991 14.5563 228.614 14.7042 229.324 14.7042C230.041 14.7042 230.663 14.5563 231.192 14.2607C231.727 13.965 232.139 13.5584 232.429 13.041C232.725 12.5236 232.873 11.9322 232.873 11.2669V0.238815Z" fill="#0E5702"/>
<path d="M239.196 17.7064V0.238815H250.966V3.2837H242.889V7.4459H250.36V10.4908H242.889V14.6615H251V17.7064H239.196Z" fill="#0E5702"/>
</svg>
