<svg width="294" height="249" viewBox="0 0 294 249" fill="none" xmlns="http://www.w3.org/2000/svg">
<circle cx="94.2853" cy="154.692" r="94.2666" transform="rotate(11.5084 94.2853 154.692)" fill="#FA8214" fill-opacity="0.46"/>
<circle cx="199.715" cy="94.2852" r="94.2666" transform="rotate(11.5084 199.715 94.2852)" fill="#FA8214" fill-opacity="0.46"/>
<g clip-path="url(#clip0_414_206)">
<path d="M131.465 143.465C130.878 142.878 130.878 141.925 131.465 141.338L141.038 131.765C141.626 131.177 142.578 131.177 143.166 131.765C143.753 132.352 143.753 133.305 143.166 133.892L134.656 142.401L143.166 150.911C143.753 151.498 143.753 152.451 143.166 153.038C142.578 153.625 141.626 153.625 141.038 153.038L131.465 143.465ZM161.611 143.906L132.529 143.906L132.529 140.897L161.611 140.897L161.611 143.906Z" fill="white"/>
</g>
<defs>
<clipPath id="clip0_414_206">
<rect width="97" height="24" fill="white" transform="matrix(-1.00284 -1.19256e-08 -1.19256e-08 1.00284 184.677 130.367)"/>
</clipPath>
</defs>
</svg>
