<svg width="200" height="174" viewBox="0 0 200 174" fill="none" xmlns="http://www.w3.org/2000/svg">
<path d="M186.38 173.802V154.952C186.38 154.952 193.744 168.316 186.38 173.802Z" fill="#F1F1F1"/>
<path d="M186.835 173.799L172.914 161.051C172.914 161.051 187.763 164.677 186.835 173.799Z" fill="#F1F1F1"/>
<path d="M154.195 170.231L150.992 170.231L149.469 157.909L154.196 157.909L154.195 170.231Z" fill="#9F616A"/>
<path d="M155.012 173.328L144.685 173.328V173.197C144.685 172.134 145.109 171.114 145.862 170.362C146.616 169.61 147.639 169.188 148.705 169.188H148.705L155.012 169.188L155.012 173.328Z" fill="#2F2E41"/>
<path d="M129.865 170.126L126.771 169.301L128.489 157.004L133.056 158.222L129.865 170.126Z" fill="#9F616A"/>
<path d="M129.852 173.328L119.875 170.667L119.909 170.541C120.185 169.514 120.858 168.638 121.781 168.106C122.704 167.573 123.801 167.429 124.83 167.703L124.831 167.703L130.924 169.329L129.852 173.328Z" fill="#2F2E41"/>
<path d="M156.037 101.175L158.72 104.283L155.25 167.459H147.84L144.103 118.848L132.519 168.763L124.814 166.878L131.82 103.479L156.037 101.175Z" fill="#2F2E41"/>
<path d="M133.611 60.3876L140.99 56.6959L152.337 56.8949L162.102 61.8791L156.546 89.556L158.946 103.987H158.946C149.67 106.346 139.959 106.426 130.645 104.219L130.571 104.202C130.571 104.202 136.086 84.6799 133.738 78.7225L133.611 60.3876Z" fill="#CBCBCB"/>
<path d="M154.957 45.6368C154.949 43.4278 154.063 41.3123 152.492 39.7546C150.922 38.197 148.796 37.3244 146.582 37.3285C144.367 37.3326 142.245 38.213 140.68 39.7764C139.116 41.3399 138.237 43.4586 138.237 45.6676C138.237 47.8766 139.116 49.9954 140.68 51.5588C142.245 53.1223 144.367 54.0027 146.582 54.0068C148.796 54.0109 150.922 53.1383 152.492 51.5806C154.063 50.023 154.949 47.9075 154.957 45.6985C154.957 45.6779 154.957 45.6574 154.957 45.6368Z" fill="#9F616A"/>
<path d="M142.854 40.8718C143.287 40.4652 143.857 40.2357 144.452 40.2288C145.345 40.1998 146.683 40.5162 147.253 41.2405C147.711 41.8226 147.733 42.6235 147.734 43.3633L147.739 45.4052C147.741 46.0093 147.748 46.6391 148.023 47.1773C148.298 47.7154 148.93 48.1241 149.507 47.9407C150.191 47.7231 150.492 46.8156 151.192 46.6525C151.717 46.5299 152.257 46.9129 152.486 47.3998C152.68 47.9046 152.745 48.4498 152.673 48.9857C152.607 50.0549 151.07 50.479 150.852 51.5279C150.726 52.1347 150.286 53.3451 150.852 53.0914C153.465 52.8308 154.611 51.3088 155.807 49.8761L158.503 46.6447C158.811 46.3238 159.048 45.9418 159.198 45.5235C159.265 45.2305 159.289 44.9294 159.269 44.6296C159.255 43.8264 159.233 43.0234 159.204 42.2207C159.178 41.5193 159.001 40.6344 158.313 40.4903C157.955 40.4153 157.481 40.546 157.291 40.2336C157.22 40.077 157.209 39.9001 157.259 39.7357C157.411 38.934 157.667 38.0956 157.403 37.3236C157.004 36.1593 155.631 35.6815 154.417 35.4619C153.203 35.2422 151.841 35.0532 151.079 34.0855C150.875 33.7642 150.654 33.4541 150.416 33.1566C150.067 32.8396 149.637 32.6236 149.174 32.5317C147.668 32.1513 146.076 32.2922 144.66 32.9313C144.073 33.1985 143.483 33.5584 142.839 33.5177C142.17 33.4754 141.599 33.0058 140.938 32.8915C139.872 32.707 138.852 33.5042 138.326 34.4484C137.675 35.6183 137.615 37.2204 138.535 38.1941C138.994 38.68 139.679 39.0137 139.87 39.6536C139.947 39.9141 139.929 40.1947 139.998 40.4577C140.078 40.7195 140.23 40.9534 140.438 41.1325C140.645 41.3115 140.899 41.4284 141.171 41.4697C141.823 41.5757 142.375 41.2776 142.854 40.8718Z" fill="#2F2E41"/>
<path d="M132.593 80.5671C132.751 80.974 132.998 81.3412 133.314 81.6429C133.631 81.9445 134.01 82.1733 134.424 82.3131C134.839 82.4529 135.279 82.5003 135.714 82.452C136.149 82.4036 136.569 82.2607 136.942 82.0333L151.925 89.9336L152.41 86.2929L137.852 77.7296C137.427 77.1287 136.796 76.7041 136.079 76.5361C135.361 76.3681 134.607 76.4685 133.959 76.8183C133.31 77.1681 132.813 77.7428 132.561 78.4338C132.31 79.1247 132.321 79.8837 132.593 80.5671V80.5671Z" fill="#9F616A"/>
<path d="M152.558 81.1965C152.314 81.5588 151.993 81.8634 151.618 82.0887C151.243 82.314 150.823 82.4546 150.388 82.5005C149.952 82.5464 149.512 82.4965 149.098 82.3544C148.684 82.2122 148.307 81.9813 147.992 81.6779L131.64 86.1168L131.782 81.4945L148.049 77.28C148.595 76.7863 149.304 76.5096 150.041 76.5023C150.778 76.4951 151.492 76.7577 152.047 77.2404C152.603 77.7232 152.962 78.3925 153.056 79.1217C153.15 79.8508 152.973 80.589 152.558 81.1965V81.1965Z" fill="#9F616A"/>
<path d="M158.913 62.0783L162.102 61.879C162.102 61.879 165.835 66.7923 163.764 72.1239C163.764 72.1239 164.123 91.2761 155.855 90.4894C147.587 89.7027 144.975 89.7027 144.975 89.7027L147.456 82.7974L153.008 81.0875C153.008 81.0875 151.297 73.5583 154.536 70.4256L158.913 62.0783Z" fill="#CBCBCB"/>
<path d="M135.89 61.91L135.439 59.6059C135.439 59.6059 128.794 59.4501 127.48 69.4951C127.48 69.4951 121.503 84.5285 127.361 86.4642C133.219 88.3998 139.662 86.4642 139.662 86.4642L139.177 79.8346L132.732 78.5225C132.732 78.5225 136.061 74.2257 134.248 70.4987L135.89 61.91Z" fill="#CBCBCB"/>
<path d="M199.739 174H100.209C100.14 174 100.073 173.972 100.024 173.924C99.9753 173.875 99.9478 173.808 99.9478 173.739C99.9478 173.67 99.9753 173.604 100.024 173.555C100.073 173.506 100.14 173.479 100.209 173.479H199.739C199.808 173.479 199.875 173.506 199.924 173.555C199.973 173.604 200 173.67 200 173.739C200 173.808 199.973 173.875 199.924 173.924C199.875 173.972 199.808 174 199.739 174Z" fill="#CBCBCB"/>
<path d="M74.1114 135.207C69.3426 135.207 64.6809 133.793 60.7158 131.145C56.7507 128.496 53.6603 124.732 51.8354 120.328C50.0105 115.923 49.533 111.077 50.4633 106.401C51.3936 101.726 53.69 97.4307 57.0621 94.0598C60.4341 90.6888 64.7303 88.3932 69.4074 87.4632C74.0846 86.5331 78.9326 87.0104 83.3383 88.8348C87.7441 90.6591 91.5098 93.7485 94.1592 97.7123C96.8085 101.676 98.2227 106.336 98.2227 111.104V111.104C98.2154 117.494 95.6728 123.621 91.1526 128.139C86.6325 132.658 80.5039 135.2 74.1114 135.207V135.207Z" fill="#0EB34D"/>
<path d="M83.6255 108.726H76.4903V101.593C76.4892 100.963 76.2382 100.359 75.7922 99.9142C75.3463 99.4692 74.7419 99.2192 74.1118 99.2192C73.4817 99.2192 72.8773 99.4692 72.4314 99.9142C71.9855 100.359 71.7344 100.963 71.7334 101.593V108.726H64.5981C63.968 108.727 63.364 108.978 62.9188 109.424C62.4737 109.87 62.2236 110.474 62.2236 111.104C62.2236 111.733 62.4737 112.338 62.9188 112.783C63.364 113.229 63.968 113.48 64.5981 113.481H71.7334V120.614C71.7344 121.244 71.9855 121.848 72.4314 122.293C72.8773 122.738 73.4817 122.988 74.1118 122.988C74.7419 122.988 75.3463 122.738 75.7922 122.293C76.2382 121.848 76.4892 121.244 76.4903 120.614V113.481H83.6255C83.938 113.482 84.2476 113.421 84.5366 113.302C84.8256 113.183 85.0883 113.009 85.3097 112.788C85.5311 112.567 85.7069 112.306 85.827 112.017C85.947 111.729 86.0091 111.419 86.0095 111.107C86.0099 110.794 85.9488 110.485 85.8295 110.196C85.7102 109.907 85.5352 109.645 85.3144 109.424C85.0936 109.203 84.8314 109.027 84.5427 108.908C84.2541 108.788 83.9447 108.726 83.6321 108.726H83.6255Z" fill="white"/>
<path d="M98.6076 90.2071C96.1141 90.2071 93.6765 89.4679 91.6032 88.083C89.5299 86.6981 87.914 84.7297 86.9597 82.4267C86.0055 80.1237 85.7558 77.5896 86.2423 75.1447C86.7287 72.6999 87.9295 70.4541 89.6927 68.6915C91.4559 66.9289 93.7024 65.7285 96.148 65.2422C98.5936 64.7559 101.129 65.0055 103.432 65.9594C105.736 66.9133 107.705 68.5287 109.09 70.6014C110.476 72.674 111.215 75.1108 111.215 77.6035V77.6036C111.211 80.9451 109.882 84.1486 107.518 86.5114C105.155 88.8742 101.95 90.2033 98.6076 90.2071V90.2071Z" fill="#0EB34D"/>
<path d="M103.582 76.3603H99.8515V72.6305C99.851 72.3011 99.7197 71.9854 99.4865 71.7527C99.2533 71.52 98.9373 71.3893 98.6078 71.3893C98.2784 71.3893 97.9623 71.52 97.7292 71.7527C97.496 71.9854 97.3647 72.3011 97.3642 72.6305V76.3603H93.6332C93.3037 76.3608 92.9879 76.492 92.7551 76.7251C92.5223 76.9582 92.3916 77.2741 92.3916 77.6035C92.3916 77.9329 92.5223 78.2488 92.7551 78.4819C92.9879 78.715 93.3037 78.8462 93.6332 78.8468H97.3642V82.5766C97.3647 82.9059 97.496 83.2216 97.7292 83.4543C97.9623 83.6871 98.2784 83.8178 98.6078 83.8178C98.9373 83.8178 99.2533 83.6871 99.4865 83.4543C99.7197 83.2216 99.851 82.9059 99.8515 82.5766V78.8468H103.582C103.746 78.8472 103.908 78.8153 104.059 78.7531C104.21 78.6909 104.347 78.5996 104.463 78.4843C104.579 78.369 104.671 78.232 104.734 78.0812C104.796 77.9303 104.829 77.7686 104.829 77.6052C104.829 77.4419 104.797 77.2801 104.735 77.1291C104.673 76.9781 104.581 76.8408 104.466 76.7252C104.35 76.6096 104.213 76.5178 104.062 76.4552C103.911 76.3926 103.749 76.3603 103.586 76.3603H103.582Z" fill="white"/>
<path d="M68.607 67.2071C66.5091 67.2071 64.4584 66.5852 62.7141 65.4201C60.9698 64.255 59.6102 62.5989 58.8074 60.6614C58.0046 58.7238 57.7945 56.5918 58.2038 54.5349C58.6131 52.478 59.6233 50.5887 61.1067 49.1057C62.5901 47.6228 64.4801 46.6129 66.5377 46.2038C68.5952 45.7946 70.7279 46.0046 72.6661 46.8071C74.6043 47.6097 76.2608 48.9688 77.4263 50.7125C78.5919 52.4563 79.2139 54.5064 79.2139 56.6035V56.6036C79.2108 59.4148 78.0922 62.11 76.1037 64.0979C74.1152 66.0857 71.4192 67.2039 68.607 67.2071V67.2071Z" fill="#0EB34D"/>
<path d="M72.7925 55.5575H69.6536V52.4196C69.6531 52.1425 69.5427 51.8769 69.3465 51.6811C69.1503 51.4853 68.8844 51.3754 68.6073 51.3754C68.3301 51.3754 68.0642 51.4853 67.868 51.6811C67.6718 51.8769 67.5614 52.1425 67.5609 52.4196V55.5575H64.422C64.1448 55.558 63.8791 55.6684 63.6833 55.8645C63.4874 56.0606 63.3774 56.3264 63.3774 56.6035C63.3774 56.8806 63.4874 57.1464 63.6833 57.3425C63.8791 57.5386 64.1448 57.649 64.422 57.6495H67.5609V60.7874C67.5614 61.0645 67.6718 61.3301 67.868 61.5259C68.0642 61.7217 68.3301 61.8316 68.6073 61.8316C68.8844 61.8316 69.1503 61.7217 69.3465 61.5259C69.5427 61.3301 69.6531 61.0645 69.6536 60.7874V57.6495H72.7925C72.93 57.6498 73.0662 57.623 73.1933 57.5707C73.3204 57.5184 73.436 57.4415 73.5334 57.3445C73.6308 57.2475 73.7081 57.1322 73.7609 57.0053C73.8138 56.8784 73.841 56.7424 73.8412 56.6049C73.8414 56.4675 73.8145 56.3314 73.7621 56.2043C73.7096 56.0773 73.6326 55.9618 73.5355 55.8646C73.4383 55.7673 73.323 55.6901 73.196 55.6374C73.069 55.5847 72.9329 55.5576 72.7954 55.5575H72.7925Z" fill="white"/>
</svg>
