<svg width="263" height="176" viewBox="0 0 263 176" fill="none" xmlns="http://www.w3.org/2000/svg">
<g clip-path="url(#clip0_417_149)">
<path d="M263 93.5413C263 129.141 240.401 159.473 208.746 171.015C203.931 172.774 198.96 174.077 193.9 174.906C179.98 177.185 165.707 175.891 152.425 171.145C120.571 159.698 97.8063 129.263 97.8213 93.5238C97.8213 48.0016 134.799 11.0826 180.411 11.0826C197.649 11.0576 214.459 16.442 228.465 26.4749C249.375 41.4324 263 65.8977 263 93.5413Z" fill="#E5E5E5"/>
<path d="M208.746 171.015C203.931 172.774 198.96 174.077 193.9 174.906C179.979 177.185 165.707 175.891 152.425 171.145L156.239 155.865L156.47 154.948L164.253 154.978L203.355 155.118L203.856 156.595L208.746 171.015Z" fill="#2F2E41"/>
<path d="M71.7404 0H0V81.0481H71.7404V0Z" fill="#E6E6E6"/>
<path d="M70.336 1.71463H1.2793V79.3337H70.336V1.71463Z" fill="white"/>
<path d="M35.8705 76.5739C38.0083 76.5739 39.7414 74.8435 39.7414 72.7091C39.7414 70.5746 38.0083 68.8442 35.8705 68.8442C33.7326 68.8442 31.9995 70.5746 31.9995 72.7091C31.9995 74.8435 33.7326 76.5739 35.8705 76.5739Z" fill="#E6E6E6"/>
<path d="M35.2162 29.1901H12.9829V31.461H35.2162V29.1901Z" fill="#E6E6E6"/>
<path d="M46.539 35.995H12.9829V38.2658H46.539V35.995Z" fill="#0EB34D"/>
<path d="M43.2452 42.8425H12.9829V45.1134H43.2452V42.8425Z" fill="#E6E6E6"/>
<path d="M59.7142 49.5092H12.9829V51.78H59.7142V49.5092Z" fill="#0EB34D"/>
<path d="M51.5537 55.8582H13.4688V58.1291H51.5537V55.8582Z" fill="#E6E6E6"/>
<path d="M102.013 131.882C102.286 132.161 102.536 132.462 102.761 132.781L137.826 131.925L141.917 124.461L154.005 129.153L148.049 143.068C147.568 144.192 146.734 145.13 145.674 145.741C144.613 146.352 143.383 146.603 142.167 146.456L102.55 141.678C101.615 142.859 100.342 143.728 98.9011 144.17C97.4598 144.611 95.918 144.604 94.4807 144.149C93.0435 143.695 91.7791 142.814 90.8555 141.624C89.9319 140.434 89.393 138.992 89.3105 137.489C89.2279 135.986 89.6056 134.494 90.3934 133.21C91.1811 131.927 92.3416 130.913 93.7204 130.304C95.0992 129.695 96.631 129.52 98.112 129.801C99.5931 130.083 100.953 130.808 102.011 131.88L102.013 131.882Z" fill="#9F616A"/>
<path d="M149.209 89.2655L165.619 83.8959L170.439 77.2965L193.893 78.6823L197.337 86.3835L209.843 92.2838L207.921 127.922L204.633 161.274C187.725 152.533 156.171 159.197 155.894 159.306L149.209 89.2655Z" fill="#0EB34D"/>
<path d="M152.717 137.504L136.025 130.836L136.096 130.539C136.168 130.24 143.272 100.6 144.216 95.8371C145.198 90.8748 148.788 89.5028 148.941 89.447L149.052 89.4061L155.658 91.4136L158.559 114.172L152.717 137.504Z" fill="#0EB34D"/>
<path d="M188.757 159.808C189.149 159.799 189.54 159.821 189.928 159.873L213.14 133.618L210.44 125.55L222.104 119.89L228.275 133.712C228.773 134.828 228.896 136.076 228.623 137.268C228.351 138.46 227.699 139.531 226.765 140.322L196.319 166.077C196.551 167.564 196.324 169.087 195.668 170.442C195.012 171.797 193.959 172.921 192.648 173.664C191.336 174.407 189.83 174.734 188.328 174.601C186.826 174.468 185.401 173.882 184.241 172.92C183.081 171.959 182.242 170.668 181.835 169.218C181.428 167.769 181.472 166.23 181.963 164.807C182.453 163.383 183.366 162.143 184.579 161.25C185.793 160.357 187.25 159.854 188.757 159.808V159.808Z" fill="#9F616A"/>
<path d="M211.287 136.174L201.604 113.434L205.381 97.5937L209.45 92.461C209.748 92.3338 210.069 92.2697 210.393 92.2727C210.717 92.2757 211.037 92.3458 211.333 92.4785C212.834 93.0815 214.111 94.9298 215.131 97.9718L224.206 123.779L211.287 136.174Z" fill="#0EB34D"/>
<path d="M161.05 68.8701V51.7262C161.04 48.7094 161.625 45.7201 162.772 42.9291C163.919 40.1381 165.606 37.6 167.735 35.4597C169.865 33.3194 172.396 31.6188 175.184 30.4551C177.971 29.2914 180.961 28.6872 183.983 28.6773C187.005 28.6673 189.999 29.2516 192.794 30.3968C195.589 31.5421 198.132 33.2259 200.275 35.352C202.419 37.4782 204.122 40.0051 205.288 42.7885C206.453 45.5718 207.058 48.5572 207.068 51.574C207.069 51.6247 207.069 51.6755 207.068 51.7262V68.8701C207.068 69.6883 206.742 70.4727 206.162 71.0512C205.583 71.6297 204.797 71.9552 203.978 71.9561H164.141C163.321 71.9552 162.536 71.6297 161.956 71.0512C161.377 70.4727 161.051 69.6883 161.05 68.8701V68.8701Z" fill="#2F2E41"/>
<path d="M179.331 71.5566C188.648 71.5566 196.2 64.0159 196.2 54.7138C196.2 45.4118 188.648 37.871 179.331 37.871C170.014 37.871 162.461 45.4118 162.461 54.7138C162.461 64.0159 170.014 71.5566 179.331 71.5566Z" fill="#9F616A"/>
<path d="M155.606 53.0978C155.612 48.2798 157.531 43.6606 160.944 40.2538C164.356 36.8469 168.982 34.9306 173.808 34.9251H177.242C182.068 34.9306 186.694 36.8469 190.107 40.2538C193.519 43.6606 195.438 48.2798 195.444 53.0978V53.4406H188.186L185.71 46.5191L185.215 53.4406H181.465L180.216 49.9488L179.966 53.4406H155.606V53.0978Z" fill="#2F2E41"/>
<path d="M177.671 73.8841C177.33 73.4234 177.127 72.876 177.084 72.305C177.041 71.7339 177.161 71.1624 177.429 70.6562C181.068 63.7451 186.164 50.9748 179.401 43.0992L178.916 42.534H198.551V71.9668L180.714 75.109C180.533 75.1409 180.35 75.157 180.167 75.1572C179.68 75.1572 179.2 75.0419 178.766 74.8207C178.333 74.5995 177.958 74.2788 177.672 73.8848L177.671 73.8841Z" fill="#2F2E41"/>
<path d="M35.8077 6.31235C34.1797 6.31226 32.5882 6.7942 31.2344 7.6972C29.8807 8.6002 28.8256 9.88372 28.2024 11.3854C27.5793 12.8872 27.4162 14.5396 27.7338 16.1339C28.0513 17.7282 28.8352 19.1926 29.9864 20.3421C31.1375 21.4915 32.6042 22.2744 34.201 22.5916C35.7978 22.9088 37.4529 22.7461 38.957 22.1241C40.4612 21.5022 41.7469 20.4488 42.6514 19.0973C43.556 17.7458 44.0389 16.1569 44.039 14.5314V14.531C44.039 13.4517 43.8261 12.383 43.4124 11.3858C42.9987 10.3887 42.3924 9.48269 41.628 8.71952C40.8636 7.95635 39.9561 7.35097 38.9574 6.93795C37.9587 6.52493 36.8883 6.31235 35.8073 6.31235H35.8077ZM35.8077 8.77771C36.2961 8.77771 36.7735 8.92229 37.1796 9.19319C37.5857 9.46409 37.9022 9.84912 38.0891 10.2996C38.276 10.7501 38.3249 11.2458 38.2296 11.724C38.1343 12.2023 37.8991 12.6415 37.5538 12.9863C37.2085 13.3311 36.7685 13.5659 36.2895 13.6611C35.8105 13.7562 35.314 13.7074 34.8628 13.5208C34.4116 13.3342 34.026 13.0182 33.7546 12.6128C33.4833 12.2073 33.3385 11.7307 33.3385 11.2431C33.3385 10.5892 33.5986 9.96215 34.0617 9.4998C34.5248 9.03746 35.1529 8.77771 35.8077 8.77771V8.77771ZM35.8077 20.6471C34.8322 20.6426 33.8725 20.4006 33.0118 19.942C32.1511 19.4834 31.4155 18.8221 30.8688 18.0155C30.9084 16.3717 34.1614 15.467 35.8077 15.467C37.4541 15.467 40.7071 16.3717 40.7467 18.0155C40.1994 18.8215 39.4636 19.4824 38.6031 19.9409C37.7426 20.3994 36.7831 20.6418 35.8077 20.6471Z" fill="#0EB34D"/>
<path d="M35.9035 74.1906C39.2947 67.9859 47.4185 64.0566 54.0639 67.5984C57.0551 69.1923 59.433 72.0119 60.1878 75.3445C61.0637 79.2158 59.218 82.9072 57.3127 86.1596C56.2785 87.9249 55.1453 89.6543 54.2894 91.5164C53.4032 93.4447 52.7697 95.6733 53.437 97.771C54.0376 99.6608 55.5437 101.035 57.193 102.046C59.0133 103.118 60.9495 103.982 62.9645 104.619C67.1123 105.997 71.4874 106.562 75.8497 106.284C78.0178 106.137 80.1676 105.79 82.2717 105.247C84.5098 104.678 86.7062 103.955 88.9481 103.398C92.6912 102.47 96.959 102.008 100.508 103.873C103.957 105.685 105.5 109.475 105.977 113.162C106.859 119.97 104.155 127.035 99.2733 131.802C96.9313 134.09 93.9841 135.98 90.7741 136.753C87.9733 137.427 84.3769 137.384 82.148 135.294C79.6608 132.961 80.246 129.219 82.2214 126.758C84.7428 123.617 89.0145 122.863 92.8263 122.786C97.1625 122.7 101.495 123.344 105.828 122.943C107.944 122.779 110.019 122.279 111.977 121.463C113.698 120.707 115.268 119.646 116.611 118.332C119.286 115.737 121.091 112.279 121.988 108.685C123.068 104.362 122.833 99.8187 121.994 95.4766C121.547 93.2377 120.972 91.0262 120.27 88.8532C119.981 87.9362 118.53 88.3285 118.822 89.2518C121.405 97.4287 122.845 106.884 117.855 114.476C115.79 117.695 112.573 120.007 108.859 120.941C104.541 122.012 100.009 121.483 95.6178 121.323C91.4428 121.172 86.8584 121.335 83.2795 123.763C80.3436 125.754 78.2901 129.542 79.1776 133.118C80.0332 136.566 83.3523 138.315 86.6719 138.584C90.1549 138.868 93.5824 137.7 96.5076 135.875C102.592 132.079 106.638 125.402 107.485 118.324C107.926 114.635 107.477 110.662 105.802 107.314C104.919 105.502 103.545 103.973 101.836 102.901C100.131 101.858 98.1628 101.345 96.1857 101.163C91.6939 100.75 87.3782 102.29 83.1171 103.468C80.9403 104.098 78.7092 104.523 76.4529 104.738C74.263 104.919 72.0605 104.883 69.8777 104.631C67.7118 104.376 65.5773 103.903 63.5066 103.219C61.4775 102.593 59.5347 101.716 57.7234 100.609C56.1254 99.5883 54.7434 98.1271 54.6648 96.1358C54.5795 93.9766 55.6699 91.9569 56.707 90.1366C58.756 86.5406 61.287 83.0234 61.8213 78.8137C62.2893 75.1313 60.8052 71.5019 58.2424 68.8755C56.958 67.5424 55.4118 66.4884 53.7005 65.7796C51.9892 65.0708 50.1498 64.7224 48.2974 64.7563C44.495 64.865 40.8544 66.5159 38.0576 69.0514C36.6705 70.3097 35.5032 71.7901 34.6038 73.4317C34.1406 74.279 35.4367 75.0364 35.9005 74.1883L35.9035 74.1906Z" fill="#3F3D56"/>
</g>
<defs>
<clipPath id="clip0_417_149">
<rect width="263" height="176" fill="white"/>
</clipPath>
</defs>
</svg>
