<svg width="71" height="71" viewBox="0 0 71 71" fill="none" xmlns="http://www.w3.org/2000/svg">
<g clip-path="url(#clip0_414_406)">
<path d="M69.5 35.502V35.5C69.5 16.7226 54.2774 1.5 35.5 1.5C16.7228 1.5 1.50043 16.7221 1.5 35.4992L69.5 35.502ZM69.5 35.502C69.5061 40.1026 68.5751 44.6562 66.7638 48.8853C66.7633 48.8864 66.7628 48.8876 66.7623 48.8887L66.6503 49.1468C66.6497 49.1481 66.6492 49.1493 66.6486 49.1506C63.5822 56.1243 58.2662 61.8687 51.5504 65.4654C44.8341 69.0623 37.1057 70.3034 29.6009 68.9904C29.3949 68.9538 29.1892 68.9159 28.9839 68.8767C26.8827 68.4692 24.8252 67.8623 22.8393 67.0644C22.5161 66.9345 22.1953 66.7999 21.8768 66.6607L21.8744 66.6596M69.5 35.502L21.8744 66.6596M21.8744 66.6596C21.6582 66.5655 21.4436 66.4691 21.2324 66.3704L21.2281 66.3684M21.8744 66.6596L21.2281 66.3684M21.2281 66.3684C15.3391 63.639 10.3531 59.283 6.85773 53.8137M21.2281 66.3684L6.85773 53.8137M6.85773 53.8137C3.36255 48.3447 1.50361 41.9905 1.5 35.5L6.85773 53.8137Z" fill="#0EB34D" stroke="white" stroke-width="3"/>
<path opacity="0.2" d="M29.34 70.4675C29.1268 70.4297 28.9139 70.3905 28.7014 70.3499C28.5628 66.3262 28.087 58.0677 26.4643 49.4185C25.5768 44.6848 24.3448 39.8325 22.636 35.4947C22.0505 33.9938 21.3819 32.5267 20.6331 31.1003C18.9064 27.8391 16.8121 25.0937 14.2725 23.2336L14.6464 22.7231C16.7585 24.2713 18.6567 26.4447 20.3411 29.2434C20.8463 30.0815 21.3315 30.9757 21.7968 31.9258C22.2957 32.9425 22.7715 34.0219 23.2241 35.1639C23.513 35.8907 23.792 36.6427 24.0612 37.4199C25.2334 40.7945 26.2297 44.6449 27.0504 48.9711C27.2321 49.9269 27.405 50.9061 27.5692 51.9088C28.8411 59.6778 29.2245 66.8608 29.34 70.4675Z" fill="black"/>
<path opacity="0.2" d="M21.2756 68.035C21.0488 67.9363 20.8219 67.8344 20.5971 67.7293C20.3776 65.3452 19.9743 62.3875 19.237 59.5801C18.9141 58.3192 18.4995 57.0836 17.9966 55.8831C17.1553 53.9138 16.0662 52.2396 14.6577 51.2071L15.0316 50.6978C16.5062 51.7775 17.6437 53.4842 18.5228 55.4808C19.5132 57.7305 20.1739 60.3489 20.6139 62.8507C20.9406 64.7087 21.1464 66.5037 21.2756 68.035Z" fill="black"/>
<path opacity="0.2" d="M10.7403 23.2189C12.4856 23.2189 13.9005 21.8041 13.9005 20.0587C13.9005 18.3134 12.4856 16.8986 10.7403 16.8986C8.99494 16.8986 7.58008 18.3134 7.58008 20.0587C7.58008 21.8041 8.99494 23.2189 10.7403 23.2189Z" fill="black"/>
<path opacity="0.2" d="M11.7583 50.4226C13.5037 50.4226 14.9185 49.0077 14.9185 47.2624C14.9185 45.517 13.5037 44.1022 11.7583 44.1022C10.013 44.1022 8.59814 45.517 8.59814 47.2624C8.59814 49.0077 10.013 50.4226 11.7583 50.4226Z" fill="black"/>
<path opacity="0.2" d="M23.2865 25.3669C22.6164 29.1476 24.0957 32.5711 24.0957 32.5711C24.0957 32.5711 26.6616 29.8646 27.3317 26.0839C28.0018 22.3031 26.5225 18.8796 26.5225 18.8796C26.5225 18.8796 23.9566 21.5861 23.2865 25.3669Z" fill="black"/>
<path opacity="0.2" d="M12.7838 34.3417C16.39 35.6603 20.0137 34.8141 20.0137 34.8141C20.0137 34.8141 17.7907 31.8299 14.1845 30.5113C10.5783 29.1926 6.95459 30.0388 6.95459 30.0388C6.95459 30.0388 9.17766 33.023 12.7838 34.3417Z" fill="black"/>
<path opacity="0.2" d="M12.1726 58.4314C14.7002 59.3556 17.2437 58.7527 17.2437 58.7527C17.2437 58.7527 15.6891 56.6512 13.1615 55.727C10.6338 54.8027 8.09033 55.4056 8.09033 55.4056C8.09033 55.4056 9.64494 57.5071 12.1726 58.4314Z" fill="black"/>
<path d="M35.4272 43.3614C43.0707 43.3614 49.2669 37.1651 49.2669 29.5216C49.2669 21.8782 43.0707 15.6819 35.4272 15.6819C27.7837 15.6819 21.5874 21.8782 21.5874 29.5216C21.5874 37.1651 27.7837 43.3614 35.4272 43.3614Z" fill="#D0CDE1"/>
<path d="M30.021 40.1176C30.021 40.1176 31.751 48.335 31.751 49.2C31.751 50.065 39.9683 53.9574 39.9683 53.9574L47.3207 52.6599L49.9157 44.8751C49.9157 44.8751 45.5907 38.3877 45.5907 35.7927L30.021 40.1176Z" fill="#D0CDE1"/>
<path d="M68.141 49.4794L68.0234 49.7504C64.8221 57.0331 59.2713 63.0319 52.2585 66.7877C45.2457 70.5434 37.176 71.8391 29.3399 70.4675C29.1267 70.4297 28.9139 70.3905 28.7013 70.3499C26.5055 69.9242 24.3553 69.2901 22.2798 68.4562C21.9427 68.3207 21.608 68.1803 21.2757 68.035C21.0489 67.9363 20.822 67.8344 20.5973 67.7294C18.56 66.7855 16.617 65.6503 14.7944 64.339L13.1538 59.5801L14.076 58.8765L15.9728 57.4281L17.9967 55.8831L18.5229 55.4808L26.4642 49.4185L27.0503 48.9711L31.1779 45.8202L31.179 45.8192C31.179 45.8192 35.6427 53.0925 42.1304 50.9299C48.6181 48.7674 48.4763 42.5664 48.4763 42.5664L68.141 49.4794Z" fill="#2F2E41"/>
<path d="M23.4253 18.3714C23.4253 18.3714 27.8194 8.85088 36.2414 11.0479C44.6633 13.245 49.4236 16.5405 49.7898 19.8361C50.1559 23.1316 49.6067 28.075 49.6067 28.075C49.6067 28.075 48.6912 21.3008 42.8325 22.7654C36.9737 24.2301 27.8194 23.1316 27.8194 23.1316L26.3547 36.3138C26.3547 36.3138 24.7069 33.9337 22.8761 35.3984C21.0452 36.8631 17.5666 21.3008 23.4253 18.3714Z" fill="#2F2E41"/>
<path d="M22.2801 68.4561C21.9429 68.3206 21.6082 68.1803 21.276 68.035C21.0491 67.9362 20.8223 67.8344 20.5975 67.7293C17.2281 66.1669 14.124 64.0866 11.3979 61.5641C12.3632 60.2491 13.154 59.5801 13.154 59.5801H19.6417L20.6143 62.8507L22.2801 68.4561Z" fill="#2F2E41"/>
<path d="M62.458 48.7673L68.0235 49.7504C66.5341 53.1434 64.5226 56.2823 62.062 59.0529L62.458 48.7673Z" fill="#2F2E41"/>
</g>
<defs>
<clipPath id="clip0_414_406">
<rect width="71" height="71" fill="white"/>
</clipPath>
</defs>
</svg>
